<svg xmlns="http://www.w3.org/2000/svg" width="70.159" height="47" viewBox="0 0 70.159 47">
  <g id="Group_11091" data-name="Group 11091" transform="translate(-848 -2903)">
    <g id="Group_425" data-name="Group 425" transform="translate(848 2911.294)">
      <rect id="Rectangle_233" data-name="Rectangle 233" width="57" height="14" transform="translate(0 12.706)" fill="#f2f2f2"/>
      <rect id="Rectangle_235" data-name="Rectangle 235" width="57" height="14" transform="translate(0 -0.294)" fill="#fab446"/>
      <rect id="Rectangle_236" data-name="Rectangle 236" width="57" height="12" transform="translate(0 26.706)" fill="#73af00"/>
      <g id="Group_10754" data-name="Group 10754" transform="translate(22.695 14.199)">
        <path id="Path_2644" data-name="Path 2644" d="M202.949,208.347a5.4,5.4,0,1,1,5.4-5.4,5.4,5.4,0,0,1-5.4,5.4Zm0-9.791a4.393,4.393,0,1,0,4.393,4.393A4.393,4.393,0,0,0,202.949,198.556Z" transform="translate(-197.552 -197.552)" fill="#41479b"/>
        <circle id="Ellipse_84" data-name="Ellipse 84" cx="0.612" cy="0.612" r="0.612" transform="translate(4.785 4.785)" fill="#41479b"/>
        <path id="Path_2645" data-name="Path 2645" d="M207.88,253.647l-1.555.157-3.34-.157v-.184l3.34-.157,1.555.157Z" transform="translate(-202.486 -248.157)" fill="#41479b"/>
        <path id="Path_2646" data-name="Path 2646" d="M256,253.647l1.555.157,3.34-.157v-.184l-3.34-.157-1.555.157Z" transform="translate(-250.603 -248.157)" fill="#41479b"/>
        <path id="Path_2647" data-name="Path 2647" d="M253.463,207.88l-.157-1.555.157-3.34h.184l.157,3.34-.157,1.555Z" transform="translate(-248.157 -202.486)" fill="#41479b"/>
        <path id="Path_2648" data-name="Path 2648" d="M253.463,256l-.157,1.555.157,3.34h.184l.157-3.34L253.647,256Z" transform="translate(-248.157 -250.603)" fill="#41479b"/>
        <path id="Path_2649" data-name="Path 2649" d="M221.274,221.405l-1.21-.988-2.251-2.473.13-.13,2.473,2.251.988,1.21Z" transform="translate(-215.942 -215.942)" fill="#41479b"/>
        <path id="Path_2650" data-name="Path 2650" d="M255.3,255.427l.988,1.211,2.473,2.251.13-.13-2.251-2.473-1.21-.988Z" transform="translate(-249.965 -249.964)" fill="#41479b"/>
        <path id="Path_2651" data-name="Path 2651" d="M255.3,221.274l.988-1.21,2.473-2.251.13.13-2.251,2.473-1.21.988Z" transform="translate(-249.965 -215.942)" fill="#41479b"/>
        <path id="Path_2652" data-name="Path 2652" d="M221.274,255.3l-1.21.988-2.251,2.473.13.13,2.473-2.251.988-1.21Z" transform="translate(-215.942 -249.965)" fill="#41479b"/>
        <path id="Path_2653" data-name="Path 2653" d="M211.237,255.251l-1.376.74-3.147,1.133-.07-.168,3.026-1.423,1.5-.45Z" transform="translate(-205.804 -249.769)" fill="#41479b"/>
        <path id="Path_2654" data-name="Path 2654" d="M255.687,236.839l1.5-.45,3.029-1.42-.07-.168L257,235.933l-1.376.74Z" transform="translate(-250.257 -231.356)" fill="#41479b"/>
        <path id="Path_2655" data-name="Path 2655" d="M236.669,211.237l-.74-1.376-1.133-3.147.168-.07,1.423,3.026.45,1.5Z" transform="translate(-231.356 -205.804)" fill="#41479b"/>
        <path id="Path_2656" data-name="Path 2656" d="M255.082,255.687l.45,1.5,1.423,3.026.168-.07-1.133-3.147-.74-1.376Z" transform="translate(-249.769 -250.257)" fill="#41479b"/>
        <path id="Path_2657" data-name="Path 2657" d="M211.167,236.839l-1.5-.45-3.026-1.42.07-.168,3.147,1.133,1.376.74Z" transform="translate(-205.804 -231.356)" fill="#41479b"/>
        <path id="Path_2658" data-name="Path 2658" d="M255.62,255.251l1.376.74,3.147,1.133.07-.168-3.026-1.423-1.5-.45Z" transform="translate(-250.257 -249.769)" fill="#41479b"/>
        <path id="Path_2659" data-name="Path 2659" d="M255.082,211.167l.45-1.5,1.423-3.026.168.07-1.133,3.147-.74,1.376Z" transform="translate(-249.769 -205.804)" fill="#41479b"/>
        <path id="Path_2660" data-name="Path 2660" d="M236.669,255.62l-.74,1.376-1.133,3.147.168.07,1.423-3.026.45-1.5Z" transform="translate(-231.356 -250.257)" fill="#41479b"/>
      </g>
    </g>
    <g id="Group_426" data-name="Group 426" transform="translate(892.211 2903)">
      <g id="Ellipse_87" data-name="Ellipse 87" transform="translate(0)" fill="#fff" stroke="#41479b" stroke-width="1">
        <circle cx="12.974" cy="12.974" r="12.974" stroke="none"/>
        <circle cx="12.974" cy="12.974" r="12.474" fill="none"/>
      </g>
      <g id="university" transform="translate(6.128 5.368)">
        <path id="Path_2667" data-name="Path 2667" d="M13.7,416.806v.913a.807.807,0,0,1-.806.806H.806A.807.807,0,0,1,0,417.719v-.913A.807.807,0,0,1,.806,416H12.9A.807.807,0,0,1,13.7,416.806Z" transform="translate(0 -404.823)" fill="#273581"/>
        <path id="Path_2668" data-name="Path 2668" d="M48,196v5.1H59.123V196H56.6v4.191H54.824V196H52.3v4.191H50.525V196Z" transform="translate(-46.71 -190.734)" fill="#273581"/>
        <path id="Path_2669" data-name="Path 2669" d="M.415,4.46h12.9a.4.4,0,0,0,.2-.754L7.062.052a.4.4,0,0,0-.4,0L.217,3.706a.4.4,0,0,0,.2.754Z" transform="translate(-0.012 0)" fill="#273581"/>
      </g>
    </g>
  </g>
</svg>
