<svg xmlns="http://www.w3.org/2000/svg" width="25" height="32.333" viewBox="0 0 25 32.333">
  <path id="Subtraction_4" data-name="Subtraction 4" d="M23.438,32.333H1.562A1.541,1.541,0,0,1,0,30.818V1.515A1.541,1.541,0,0,1,1.562,0H14.584V8.589A1.541,1.541,0,0,0,16.146,10.1H25V30.818A1.541,1.541,0,0,1,23.438,32.333ZM13.32,13.482a9.3,9.3,0,0,0-4.351,1.009,7.705,7.705,0,0,0-3.042,2.8,7.947,7.947,0,0,0,0,8.092,7.705,7.705,0,0,0,3.042,2.8A9.266,9.266,0,0,0,13.3,29.19a9.5,9.5,0,0,0,3.691-.694,7.28,7.28,0,0,0,2.773-2.018L17.435,24.4A5.062,5.062,0,0,1,13.5,26.2a5.378,5.378,0,0,1-2.595-.619,4.491,4.491,0,0,1-1.779-1.724,5.292,5.292,0,0,1,0-5.035A4.491,4.491,0,0,1,10.9,17.095a5.378,5.378,0,0,1,2.595-.619,5.088,5.088,0,0,1,3.936,1.779l2.327-2.083a7.39,7.39,0,0,0-2.763-2A9.417,9.417,0,0,0,13.32,13.482Zm-8.633-5.4a.513.513,0,0,0-.52.505V9.6a.513.513,0,0,0,.52.505H9.9a.514.514,0,0,0,.521-.505V8.589A.514.514,0,0,0,9.9,8.083Zm0-4.041a.513.513,0,0,0-.52.5V5.557a.513.513,0,0,0,.52.505H9.9a.514.514,0,0,0,.521-.505V4.546a.513.513,0,0,0-.521-.5ZM25,8.083H16.667V0h.4a1.575,1.575,0,0,1,1.107.442l6.373,6.189A1.493,1.493,0,0,1,25,7.7v.384Z" fill="#555"/>
</svg>
