<svg xmlns="http://www.w3.org/2000/svg" width="50" height="50" viewBox="0 0 50 50">
  <g id="Group_6966" data-name="Group 6966" transform="translate(-1049 -161)">
    <g id="Ellipse_30" data-name="Ellipse 30" transform="translate(1049 161)" fill="#fff" stroke="#707070" stroke-width="1">
      <circle cx="25" cy="25" r="25" stroke="none"/>
      <circle cx="25" cy="25" r="24.5" fill="none"/>
    </g>
    <path id="Intersection_2" data-name="Intersection 2" d="M0,33.136c.087-.053.172-.1.265-.146L9.353,28.4a.879.879,0,0,1,.691-.038.863.863,0,0,1,.5.482c1.62,5.371,9.594,8.494,14.193,0a.875.875,0,0,1,1.2-.446l9.093,4.589a4.433,4.433,0,0,1,.863.573A23.072,23.072,0,0,1,0,33.136ZM7.9,21.216c-1.45-.083-2.534-1.956-2.534-4.425a7.609,7.609,0,0,1,.265-2,11.9,11.9,0,0,1-.263-2.43,12.293,12.293,0,1,1,24.587,0,12.034,12.034,0,0,1-.275,2.43,7.106,7.106,0,0,1,.269,2c0,2.469-1.084,4.344-2.528,4.425-1.6,5.337-5.442,8.867-9.768,8.867S9.486,26.554,7.9,21.216Zm.924-1.857a.911.911,0,0,1,.551.587c1.229,5,4.555,8.36,8.279,8.36s7.056-3.358,8.271-8.36a.911.911,0,0,1,.518-.608.875.875,0,0,1,.79.073c.308.038.936-.907.936-2.617a6.1,6.1,0,0,0-.081-1.023l-1.6.132a.322.322,0,0,1-.073,0,.873.873,0,0,1-.81-.529,13.49,13.49,0,0,1-.891-3.038,15.955,15.955,0,0,1-9.353-3.951c-.7,1.227-2.216,2.2-5.249,2.2H9.972a13.109,13.109,0,0,0-.251,4.129.79.79,0,0,1,.055.3.893.893,0,0,1-.9.889H8.852a.907.907,0,0,1-.113-.01c-.012,0-.743-.111-1.535-.16a6.09,6.09,0,0,0-.087,1.055c0,1.715.654,2.655.875,2.655a1,1,0,0,1,.514-.15.838.838,0,0,1,.308.057Zm11.471-1.681a.885.885,0,1,1,0-1.77h1.754a.885.885,0,1,1,0,1.77Zm-7.026,0a.885.885,0,0,1,0-1.77h1.756a.885.885,0,0,1,0,1.77Z" transform="translate(1056.019 169.077)" fill="#636363"/>
  </g>
</svg>
