<svg xmlns="http://www.w3.org/2000/svg" width="59.506" height="75.099" viewBox="0 0 59.506 75.099">
  <g id="Group_417" data-name="Group 417" transform="translate(-5 -18)">
    <g id="surface1" transform="translate(8 18)">
      <g id="Group_6965" data-name="Group 6965" transform="translate(-3)">
        <path id="Path_1767" data-name="Path 1767" d="M187.839,136.984a1.875,1.875,0,0,0-1.285-.584H157.239a9.932,9.932,0,0,0-9.869,9.869v55.419a9.882,9.882,0,0,0,9.869,9.811h39.768a9.882,9.882,0,0,0,9.869-9.811V157.657a1.946,1.946,0,0,0-.525-1.226Zm.526,5.84,12.38,13.022h-8.059a4.312,4.312,0,0,1-4.321-4.321v-8.7Zm8.643,65.054H157.239a6.282,6.282,0,0,1-6.249-6.19V146.269a6.282,6.282,0,0,1,6.249-6.19h27.5v11.446a7.95,7.95,0,0,0,7.942,7.942h10.57v42.221a6.282,6.282,0,0,1-6.244,6.19ZM197.007,207.878Z" transform="translate(-147.37 -136.4)" fill="#fff"/>
        <path id="Path_1768" data-name="Path 1768" d="M181.251,146.5H151.41a1.811,1.811,0,0,0,0,3.621h29.841a1.811,1.811,0,1,0,0-3.621ZM181.251,146.5Z" transform="translate(-136.577 -87.519)" fill="#fff"/>
        <path id="Path_1769" data-name="Path 1769" d="M161.455,168.127a1.691,1.691,0,0,0,1.343.584,1.656,1.656,0,0,0,1.285-.584l10.628-11.387a1.834,1.834,0,0,0-.058-2.57,1.781,1.781,0,0,0-2.57.117l-7.475,8v-19.8a1.84,1.84,0,0,0-3.679,0v19.8l-7.475-8a1.716,1.716,0,0,0-2.511-.117,1.785,1.785,0,0,0-.117,2.57l10.628,11.387ZM161.455,168.127Z" transform="translate(-133.016 -115.686)" fill="#fff"/>
      </g>
    </g>
  </g>
</svg>
