<svg xmlns="http://www.w3.org/2000/svg" width="230.765" height="23.242" viewBox="0 0 230.765 23.242">
  <g id="Group_11078" data-name="Group 11078" transform="translate(-1678.836 -690.65)">
    <text id="Data_Powered_by" data-name="Data Powered by" transform="translate(1678.836 704.271)" fill="gray" font-size="12" font-family="SegoeUI-Bold, Segoe UI" font-weight="700"><tspan x="0" y="0">Data Powered by</tspan></text>
    <g id="Layer_x0020_1" transform="translate(1785.22 690.65)">
      <g id="_2381711159072" transform="translate(0 0)">
        <path id="Path_1770" data-name="Path 1770" d="M49.252.57a1.788,1.788,0,0,1,1.757,1.807,1.769,1.769,0,1,1-3.538,0A1.788,1.788,0,0,1,49.226.57h.025Zm-.025.28A1.48,1.48,0,0,0,47.8,2.377a1.462,1.462,0,0,0,1.451,1.5,1.442,1.442,0,0,0,1.426-1.5A1.48,1.48,0,0,0,49.252.85h-.025ZM48.9,3.421H48.59V1.41a3,3,0,0,1,.56-.051,1.047,1.047,0,0,1,.611.153.475.475,0,0,1,.178.407.5.5,0,0,1-.382.509h0c.178.025.305.2.331.484a2.663,2.663,0,0,0,.127.509h-.331a1.289,1.289,0,0,1-.127-.509.383.383,0,0,0-.433-.356H48.9v.866Zm0-1.12h.229c.28,0,.484-.1.484-.331,0-.178-.127-.356-.484-.356a.565.565,0,0,0-.229.025Z" transform="translate(73.372 0.881)" fill="#9c1f2e"/>
        <path id="Path_1771" data-name="Path 1771" d="M0,17.59,3.971,0H19.678L18.94,3.538H10.31L9.648,6.517h7.535l-.764,3.513H8.859l-.815,3.844H16.9l-.764,3.717Z" fill="#9c1f2e"/>
        <path id="Path_1772" data-name="Path 1772" d="M8.082,6.553C9.685.342,13.962.393,19.053.494,22.541.571,27.963.6,27,6.069c0,0-.2,1.553-.56,3.233h-5.5L31.985,22.514H24.654l-4.786-5.728a13.371,13.371,0,0,1-4.709.535c-2.9-.1-8.273,0-8.044-5.04a31.625,31.625,0,0,1,.967-5.728Zm6.746-.866a32.386,32.386,0,0,0-1.5,5.957c-.382,2.087,1.12,2.851,2.571,2.851a3.717,3.717,0,0,0,3.386-2.138,35.369,35.369,0,0,0,1.5-6.008C21.319,3.015,18.213,3.5,18.213,3.5a3.468,3.468,0,0,0-3.386,2.189Z" transform="translate(10.985 0.728)" fill="#9c1f2e"/>
        <path id="Path_1773" data-name="Path 1773" d="M17.327.77h6.39s-2.037,9.012-2.495,11.252a1.959,1.959,0,0,0,2.037,1.858s2.546.382,3.08-1.706L28.885.77H35.4s-2.469,11.277-2.9,12.677c-.433,1.375-2.571,3.258-7.459,3.538a25.011,25.011,0,0,1-3.971-.229L15.24,9.833S16.793,2.628,17.327.77Z" transform="translate(23.556 1.19)" fill="#9c1f2e"/>
        <path id="Path_1774" data-name="Path 1774" d="M26.166.77h6.542l-3.538,15.6H22.78Z" transform="translate(35.21 1.19)" fill="#9c1f2e"/>
        <path id="Path_1775" data-name="Path 1775" d="M32.74,16.375H26.3L29.686.77H43.763l-.738,3.055H35.617L34.9,6.7h6.339l-.687,3H34.293Z" transform="translate(40.651 1.19)" fill="#9c1f2e"/>
        <path id="Path_1776" data-name="Path 1776" d="M35.061,16.375H30.53l11-15.6h7.841l1.553,12.677,5.244-4.837L51.022.77H59.3l2.495,3.971L65.838.77H72.2L63.954,8.025l5.371,8.35H61.332l-2.7-4.659-4.48,4.659H44.506L44.2,12.964H37.352l-2.291,3.411Zm4.506-6.8h4.1l-.509-5.142Z" transform="translate(47.189 1.19)" fill="#9c1f2e"/>
      </g>
    </g>
  </g>
</svg>
