<svg xmlns="http://www.w3.org/2000/svg" width="545" height="1890" viewBox="0 0 545 1890">
    <defs>
        <clipPath id="clip-path">
            <path id="Path_1747" d="M32 131.52h231.161a31.738 31.738 0 0 1 31.658 31.63 31.744 31.744 0 0 1-31.658 31.658H32A31.744 31.744 0 0 1 .34 163.15 31.738 31.738 0 0 1 32 131.52z" class="cls-1" transform="translate(-.34 -131.52)"/>
        </clipPath>
        <clipPath id="clip-path-2">
            <path id="Path_1750" d="M11.2 194.39h434.262a10.918 10.918 0 0 1 10.868 10.868v170.885a10.9 10.9 0 0 1-10.868 10.868H11.2A10.9 10.9 0 0 1 .33 376.143V205.258A10.918 10.918 0 0 1 11.2 194.39z" class="cls-1" transform="translate(-.33 -194.39)"/>
        </clipPath>
        <clipPath id="clip-path-3">
            <path id="Path_1753" d="M10.892 272.24h434.876a10.591 10.591 0 0 1 10.562 10.56v166.01a10.609 10.609 0 0 1-10.562 10.562H10.892A10.609 10.609 0 0 1 .33 448.81V282.8a10.591 10.591 0 0 1 10.562-10.56z" class="cls-1" transform="translate(-.33 -272.24)"/>
        </clipPath>
        <clipPath id="clip-path-4">
            <path id="Path_1756" d="M10.892 348.11h434.876a10.609 10.609 0 0 1 10.562 10.562V524.68a10.591 10.591 0 0 1-10.562 10.562H10.892A10.591 10.591 0 0 1 .33 524.68V358.672a10.609 10.609 0 0 1 10.562-10.562z" class="cls-1" transform="translate(-.33 -348.11)"/>
        </clipPath>
        <clipPath id="clip-path-5">
            <path id="Path_1759" d="M10.892 499.86h434.876a10.609 10.609 0 0 1 10.562 10.562V676.43a10.591 10.591 0 0 1-10.562 10.562H10.892A10.591 10.591 0 0 1 .33 676.43V510.422a10.609 10.609 0 0 1 10.562-10.562z" class="cls-1" transform="translate(-.33 -499.86)"/>
        </clipPath>
        <clipPath id="clip-path-6">
            <path id="Path_1762" d="M10.892 423.99h434.876a10.591 10.591 0 0 1 10.562 10.562V600.56a10.609 10.609 0 0 1-10.562 10.562H10.892A10.609 10.609 0 0 1 .33 600.56V434.552a10.591 10.591 0 0 1 10.562-10.562z" class="cls-1" transform="translate(-.33 -423.99)"/>
        </clipPath>
        <clipPath id="clip-path-7">
            <path id="Path_1765" d="M10.892 575.73h434.876a10.615 10.615 0 0 1 10.562 10.59v166.008a10.609 10.609 0 0 1-10.562 10.562H10.892A10.609 10.609 0 0 1 .33 752.328V586.32a10.615 10.615 0 0 1 10.562-10.59z" class="cls-1" transform="translate(-.33 -575.73)"/>
        </clipPath>
        <filter id="Rectangle_224" width="545" height="1890" x="0" y="0" filterUnits="userSpaceOnUse">
            <feOffset dy="3"/>
            <feGaussianBlur result="blur" stdDeviation="5"/>
            <feFlood flood-opacity=".161"/>
            <feComposite in2="blur" operator="in"/>
            <feComposite in="SourceGraphic"/>
        </filter>
        <style>
            .cls-1{clip-rule:evenodd}.cls-2{fill:#fff}.cls-17{fill:#f9fafb}.cls-28{stroke:#ccc}.cls-21,.cls-28{stroke-miterlimit:2.613;stroke-width:.66px}.cls-11{font-size:14px}.cls-29,.cls-33,.cls-38{font-family:SegoeUI-Bold,Segoe UI;font-weight:700}.cls-9{fill:#ffba00}.cls-17,.cls-27,.cls-28{fill-rule:evenodd}.cls-11{fill:#1a1a1a}.cls-11,.cls-30,.cls-31,.cls-32{font-family:SegoeUI,Segoe UI}.cls-33{font-size:25px}.cls-16{fill:#9c1f2e}.cls-21,.cls-33,.cls-38{fill:#363d72}.cls-21{stroke:#363d72}.cls-28{fill:none}.cls-30{font-size:20px}.cls-27{fill:#efefef}.cls-29,.cls-32{font-size:22px}.cls-30,.cls-31,.cls-32{fill:#666}.cls-31{font-size:21px}.cls-38{font-size:23px}
        </style>
    </defs>
    <g id="Group_419" transform="translate(-1153 -492)">
        <path id="Rectangle_211" d="M0 0H218V46H0z" class="cls-2" transform="translate(1211 599)"/>
        <g filter="url(#Rectangle_224)" transform="translate(1153 492)">
            <path id="Rectangle_224-2" fill="#fcfcfc" d="M0 0H515V1860H0z" transform="translate(15 12)"/>
        </g>
        <g id="Group_395" transform="translate(1201.027 535)">
            <rect id="Rectangle_225" width="455.916" height="341.268" fill="#f9fafb" stroke="#ccc" stroke-miterlimit="2.613" stroke-width="0.66px" rx="3.95"/>
            <text id="Powered_by" fill="gray" font-family="SegoeUI-Bold, Segoe UI" font-size="14px" font-weight="700" transform="translate(326.443 33.253)">
                <tspan x="0" y="0">Powered by</tspan>
            </text>
            <text id="Good_" fill="#ffba00" font-family="SegoeUI-Bold, Segoe UI" font-size="35px" font-weight="700" transform="translate(183.955 228.671)">
                <tspan x="0" y="0">Good*</tspan>
            </text>
            <path id="Path_1742" fill="#ef4c47" fill-rule="evenodd" d="M15.147 94.16H297v12.373H15.147a6.208 6.208 0 0 1-6.187-6.187 6.208 6.208 0 0 1 6.187-6.186z" transform="translate(15.062 167.323)"/>
            <path id="Rectangle_226" fill="#ff741d" d="M0 0H20.176V12.373H0z" transform="translate(317.86 261.483)"/>
            <path id="Rectangle_227" d="M0 0H11.454V12.373H0z" class="cls-9" transform="translate(361.082 261.483)"/>
            <rect id="Rectangle_228" width="11.454" height="47.71" class="cls-9" rx=".09" transform="translate(343.832 245.431)"/>
            <path id="Path_1743" fill="#89c65a" fill-rule="evenodd" d="M136.11 94.16h47.459a6.208 6.208 0 0 1 6.187 6.187 6.208 6.208 0 0 1-6.187 6.187H136.11z" transform="translate(242.25 167.323)"/>
            <text id="_300" class="cls-11" transform="translate(31.769 311.067)">
                <tspan x="0" y="0">300</tspan>
            </text>
            <text id="_650" class="cls-11" transform="translate(286.787 311.067)">
                <tspan x="0" y="0">650</tspan>
            </text>
            <text id="_750" class="cls-11" transform="translate(343.219 311.067)">
                <tspan x="0" y="0">750</tspan>
            </text>
            <text id="_700" class="cls-11" transform="translate(316.16 311.067)">
                <tspan x="0" y="0">700</tspan>
            </text>
            <text id="_900" class="cls-11" transform="translate(407.343 311.067)">
                <tspan x="0" y="0">900</tspan>
            </text>
            <path id="Path_1744" fill="rgba(255,215,106,0.56)" d="M312.153 209.115a203.347 203.347 0 0 1-22.935 1.282 207.467 207.467 0 0 1-147.225-61 207.583 207.583 0 0 1-61-147.225L81.018.33h3.651v1.839A203.915 203.915 0 0 0 144.584 146.8a203.8 203.8 0 0 0 144.634 59.916 202.617 202.617 0 0 0 22.935-1.282z" transform="translate(143.763 -.33)"/>
            <path id="Path_1745" fill="rgba(255,215,106,0.56)" fill-rule="evenodd" d="M119.391.33h3.929c-2.034 5.239-3.874 10.534-5.462 15.912a204.633 204.633 0 0 0 150.18 257.777v3.762a208.265 208.265 0 0 1-153.691-262.6Q116.6 7.659 119.391.33z" transform="translate(187.879 -.33)"/>
            <text id="CURRENT_SCORE_" fill="#373435" font-family="SegoeUI, Segoe UI" font-size="25px" transform="translate(24.496 55.119)">
                <tspan x="0" y="0">CURRENT SCORE</tspan>
            </text>
            <text id="_710_" fill="#1a1a1a" font-family="SegoeUI-Bold, Segoe UI" font-size="88px" font-weight="700" transform="translate(151.294 177.015)">
                <tspan x="0" y="0">710*</tspan>
            </text>
            <g id="Layer_x0020_1" transform="translate(306.175 40.651)">
                <g id="_2381711159072">
                    <path id="Path_1770" d="M49.365.57a1.9 1.9 0 0 1 1.868 1.922 1.881 1.881 0 1 1-3.763 0A1.9 1.9 0 0 1 49.338.57h.027zm-.027.3a1.574 1.574 0 0 0-1.516 1.624 1.555 1.555 0 0 0 1.543 1.6 1.533 1.533 0 0 0 1.516-1.6A1.574 1.574 0 0 0 49.365.868h-.027zm-.352 2.73h-.325V1.463a3.193 3.193 0 0 1 .6-.054 1.114 1.114 0 0 1 .65.162A.5.5 0 0 1 50.1 2a.531.531 0 0 1-.406.541c.19.027.325.217.352.514a2.833 2.833 0 0 0 .135.541h-.352a1.371 1.371 0 0 1-.135-.541.407.407 0 0 0-.46-.379h-.244V3.6zm0-1.191h.244c.3 0 .514-.108.514-.352 0-.189-.135-.379-.514-.379a.6.6 0 0 0-.244.027z" class="cls-16" transform="translate(81.033 .973)"/>
                    <path id="Path_1771" d="M0 18.706L4.223 0h16.7l-.783 3.763h-9.177l-.7 3.167h8.013l-.812 3.736H9.42l-.866 4.088h9.42l-.812 3.952z" class="cls-16"/>
                    <path id="Path_1772" d="M8.143 6.939C9.849.333 14.4.388 19.811.5c3.709.081 9.475.108 8.446 5.928 0 0-.217 1.651-.6 3.438h-5.843l11.748 14.046h-7.8l-5.089-6.091a14.218 14.218 0 0 1-5.008.568c-3.086-.108-8.8 0-8.554-5.36a33.63 33.63 0 0 1 1.032-6.09zm7.174-.92a34.439 34.439 0 0 0-1.6 6.334c-.406 2.22 1.191 3.032 2.734 3.032a3.953 3.953 0 0 0 3.6-2.274 37.611 37.611 0 0 0 1.6-6.389c.568-3.546-2.734-3.032-2.734-3.032a3.688 3.688 0 0 0-3.6 2.328z" class="cls-16" transform="translate(12.132 .803)"/>
                    <path id="Path_1773" d="M17.46.77h6.795s-2.166 9.583-2.655 11.965a2.083 2.083 0 0 0 2.166 1.976s2.707.406 3.276-1.814L29.75.77h6.93s-2.626 11.992-3.086 13.481c-.46 1.462-2.734 3.465-7.932 3.763a26.6 26.6 0 0 1-4.223-.244l-6.2-7.363S16.891 2.746 17.46.77z" class="cls-16" transform="translate(26.015 1.314)"/>
                    <path id="Path_1774" d="M26.38.77h6.957l-3.762 16.594H22.78z" class="cls-16" transform="translate(38.886 1.314)"/>
                    <path id="Path_1775" d="M33.149 17.364H26.3L29.9.77h14.97l-.785 3.248h-7.877l-.758 3.059h6.74l-.731 3.194H34.8z" class="cls-16" transform="translate(44.895 1.314)"/>
                    <path id="Path_1776" d="M35.349 17.364H30.53L42.224.77h8.338l1.651 13.481 5.577-5.143L52.322.77h8.8l2.653 4.223L68.077.77h6.768l-8.772 7.715 5.712 8.879h-8.5l-2.869-4.954-4.764 4.954h-10.26l-.325-3.627h-7.282l-2.436 3.627zm4.791-7.228h4.36l-.541-5.468z" class="cls-16" transform="translate(52.116 1.314)"/>
                </g>
            </g>
        </g>
        <path id="Path_1746" d="M32 131.52h231.161a31.738 31.738 0 0 1 31.658 31.63 31.744 31.744 0 0 1-31.658 31.658H32A31.744 31.744 0 0 1 .34 163.15 31.738 31.738 0 0 1 32 131.52z" class="cls-17" transform="translate(1200.688 769.077)"/>
        <g id="Group_397" clip-path="url(#clip-path)" transform="translate(1201.027 900.597)">
            <g id="Group_396">
                <path id="_1" fill="#363d72" fill-rule="evenodd" stroke="#363d72" stroke-miterlimit="2.613" stroke-width="0.66px" d="M32 131.52h118.909v63.288H32A31.744 31.744 0 0 1 .34 163.15 31.738 31.738 0 0 1 32 131.52z" transform="translate(-.34 -131.52)"/>
            </g>
        </g>
        <path id="Path_1748" fill="none" fill-rule="evenodd" stroke="#363d72" stroke-miterlimit="2.613" stroke-width="0.66px" d="M32 131.52h231.161a31.738 31.738 0 0 1 31.658 31.63 31.744 31.744 0 0 1-31.658 31.658H32A31.744 31.744 0 0 1 .34 163.15 31.738 31.738 0 0 1 32 131.52z" transform="translate(1200.688 769.077)"/>
        <rect id="Rectangle_229" width="64.458" height="63.288" class="cls-21" rx="2.51" transform="translate(1592.514 900.597)"/>
        <path id="Line_12" fill="none" stroke="#363d72" stroke-miterlimit="2.613" stroke-width="0.66px" d="M96.506 0L0 0" transform="translate(1495.841 932.115)"/>
        <text id="Equifax" fill="#fff" font-family="SegoeUI, Segoe UI" font-size="20px" transform="translate(1243.638 939.234)">
            <tspan x="0" y="0">Equifax</tspan>
        </text>
        <text id="Recordent" fill="#1a1a1a" font-family="SegoeUI, Segoe UI" font-size="19px" transform="translate(1376.65 938.234)">
            <tspan x="0" y="0">Recordent</tspan>
        </text>
        <g id="Group_398" transform="translate(1201 988.185)">
            <rect id="Rectangle_230" width="456" height="63.288" class="cls-21" rx="5.21"/>
            <text id="Report_Summary" fill="#fff" font-family="SegoeUI, Segoe UI" font-size="25px" transform="translate(133.57 38.649)">
                <tspan x="0" y="0">Report Summary</tspan>
            </text>
        </g>
        <g id="Group_401" transform="translate(1201 1075.802)">
            <path id="Path_1749" d="M11.2 194.39h434.262a10.918 10.918 0 0 1 10.868 10.868v170.885a10.9 10.9 0 0 1-10.868 10.868H11.2A10.9 10.9 0 0 1 .33 376.143V205.258A10.918 10.918 0 0 1 11.2 194.39z" class="cls-17" transform="translate(-.33 -194.39)"/>
            <g id="Group_400" clip-path="url(#clip-path-2)">
                <g id="Group_399">
                    <path id="_1-2" d="M10.892 194.39h434.876a10.609 10.609 0 0 1 10.562 10.562V286.6a10.591 10.591 0 0 0-10.562-10.562H10.892A10.591 10.591 0 0 0 .33 286.6v-81.648a10.609 10.609 0 0 1 10.562-10.562z" class="cls-27" transform="translate(-.33 -194.39)"/>
                </g>
            </g>
            <path id="Path_1751" d="M11.2 194.39h434.262a10.918 10.918 0 0 1 10.868 10.868v170.885a10.9 10.9 0 0 1-10.868 10.868H11.2A10.9 10.9 0 0 1 .33 376.143V205.258A10.918 10.918 0 0 1 11.2 194.39z" class="cls-28" transform="translate(-.33 -194.39)"/>
            <text id="Profile" class="cls-29" transform="translate(24.078 37.404)">
                <tspan x="0" y="0">Profile</tspan>
            </text>
            <text id="Personal_Details" class="cls-30" transform="translate(23.911 63.3)">
                <tspan x="0" y="0">Personal Details</tspan>
            </text>
            <text id="Phone" class="cls-31" transform="translate(23.465 121.596)">
                <tspan x="0" y="0">Phone</tspan>
            </text>
            <text id="PAN" class="cls-32" transform="translate(23.465 164.314)">
                <tspan x="0" y="0">PAN</tspan>
            </text>
            <text id="_9_6" class="cls-33" transform="translate(106.26 123.729)">
                <tspan x="0" y="0">9********6</tspan>
            </text>
            <text id="A_D" class="cls-33" transform="translate(106.984 168.206)">
                <tspan x="0" y="0">A**********D</tspan>
            </text>
        </g>
        <g id="Group_404" transform="translate(1201 1292.752)">
            <path id="Path_1752" d="M10.892 272.24h434.876a10.591 10.591 0 0 1 10.562 10.56v166.01a10.609 10.609 0 0 1-10.562 10.562H10.892A10.609 10.609 0 0 1 .33 448.81V282.8a10.591 10.591 0 0 1 10.562-10.56z" class="cls-17" transform="translate(-.33 -272.24)"/>
            <g id="Group_403" clip-path="url(#clip-path-3)">
                <g id="Group_402">
                    <path id="_1-3" d="M10.892 272.24h434.876a10.591 10.591 0 0 1 10.562 10.56v81.625a10.609 10.609 0 0 0-10.562-10.562H10.892A10.609 10.609 0 0 0 .33 364.427V282.8a10.591 10.591 0 0 1 10.562-10.56z" class="cls-27" transform="translate(-.33 -272.24)"/>
                </g>
            </g>
            <path id="Path_1754" d="M10.892 272.24h434.876a10.591 10.591 0 0 1 10.562 10.56v166.01a10.609 10.609 0 0 1-10.562 10.562H10.892A10.609 10.609 0 0 1 .33 448.81V282.8a10.591 10.591 0 0 1 10.562-10.56z" class="cls-28" transform="translate(-.33 -272.24)"/>
            <text id="Credit_Age" class="cls-29" transform="translate(24.078 37.404)">
                <tspan x="0" y="0">Credit Age</tspan>
            </text>
            <text id="Age_of_Credit_Accounts" class="cls-30" transform="translate(23.911 63.3)">
                <tspan x="0" y="0">Age of Credit Accounts</tspan>
            </text>
            <text id="Since_1st_account" class="cls-32" transform="translate(23.465 122.568)">
                <tspan x="0" y="0">Since 1st account</tspan>
            </text>
            <text id="_18_years_7_months" class="cls-33" transform="translate(23.465 153.993)">
                <tspan x="0" y="0">18 years 7 months</tspan>
            </text>
        </g>
        <g id="Group_407" transform="translate(1201 1504.185)">
            <path id="Path_1755" d="M10.892 348.11h434.876a10.609 10.609 0 0 1 10.562 10.562V524.68a10.591 10.591 0 0 1-10.562 10.562H10.892A10.591 10.591 0 0 1 .33 524.68V358.672a10.609 10.609 0 0 1 10.562-10.562z" class="cls-17" transform="translate(-.33 -348.11)"/>
            <g id="Group_406" clip-path="url(#clip-path-4)">
                <g id="Group_405">
                    <path id="_1-4" d="M10.892 348.11h434.876a10.609 10.609 0 0 1 10.562 10.562v81.652a10.591 10.591 0 0 0-10.562-10.562H10.892A10.591 10.591 0 0 0 .33 440.324v-81.652a10.609 10.609 0 0 1 10.562-10.562z" class="cls-27" transform="translate(-.33 -348.11)"/>
                </g>
            </g>
            <path id="Path_1757" d="M10.892 348.11h434.876a10.609 10.609 0 0 1 10.562 10.562V524.68a10.591 10.591 0 0 1-10.562 10.562H10.892A10.591 10.591 0 0 1 .33 524.68V358.672a10.609 10.609 0 0 1 10.562-10.562z" class="cls-28" transform="translate(-.33 -348.11)"/>
            <text id="Payment_History" class="cls-29" transform="translate(24.078 37.404)">
                <tspan x="0" y="0">Payment History</tspan>
            </text>
            <text id="On-time_delayed_payments" class="cls-30" transform="translate(23.911 63.3)">
                <tspan x="0" y="0">On-time &amp; delayed payments</tspan>
            </text>
            <text id="Payments_on_time" class="cls-31" transform="translate(23.465 121.596)">
                <tspan x="0" y="0">Payments on time</tspan>
            </text>
            <text id="_512_558" class="cls-33" transform="translate(23.465 153.993)">
                <tspan x="0" y="0">512/558</tspan>
            </text>
        </g>
        <g id="Group_410" transform="translate(1201 1927.078)">
            <path id="Path_1758" d="M10.892 499.86h434.876a10.609 10.609 0 0 1 10.562 10.562V676.43a10.591 10.591 0 0 1-10.562 10.562H10.892A10.591 10.591 0 0 1 .33 676.43V510.422a10.609 10.609 0 0 1 10.562-10.562z" class="cls-17" transform="translate(-.33 -499.86)"/>
            <g id="Group_409" clip-path="url(#clip-path-5)">
                <g id="Group_408">
                    <path id="_1-5" d="M10.892 499.86h434.876a10.609 10.609 0 0 1 10.562 10.562v81.652a10.591 10.591 0 0 0-10.562-10.562H10.892A10.591 10.591 0 0 0 .33 592.074v-81.652a10.609 10.609 0 0 1 10.562-10.562z" class="cls-27" transform="translate(-.33 -499.86)"/>
                </g>
            </g>
            <path id="Path_1760" d="M10.892 499.86h434.876a10.609 10.609 0 0 1 10.562 10.562V676.43a10.591 10.591 0 0 1-10.562 10.562H10.892A10.591 10.591 0 0 1 .33 676.43V510.422a10.609 10.609 0 0 1 10.562-10.562z" class="cls-28" transform="translate(-.33 -499.86)"/>
            <text id="Limits" class="cls-29" transform="translate(24.078 37.404)">
                <tspan x="0" y="0">Limits</tspan>
            </text>
            <text id="Remaining_limit_of_open_credit_cards" class="cls-30" transform="translate(23.911 63.3)">
                <tspan x="0" y="0">Remaining limit of open credit cards</tspan>
            </text>
            <text id="Credit_Available" class="cls-31" transform="translate(23.465 121.596)">
                <tspan x="0" y="0">Credit Available</tspan>
            </text>
            <text id="_87_" class="cls-33" transform="translate(23.465 153.993)">
                <tspan x="0" y="0">87%</tspan>
            </text>
        </g>
        <g id="Group_413" transform="translate(1201 1715.645)">
            <path id="Path_1761" d="M10.892 423.99h434.876a10.591 10.591 0 0 1 10.562 10.562V600.56a10.609 10.609 0 0 1-10.562 10.562H10.892A10.609 10.609 0 0 1 .33 600.56V434.552a10.591 10.591 0 0 1 10.562-10.562z" class="cls-17" transform="translate(-.33 -423.99)"/>
            <g id="Group_412" clip-path="url(#clip-path-6)">
                <g id="Group_411">
                    <path id="_1-6" d="M10.892 423.99h434.876a10.591 10.591 0 0 1 10.562 10.562v81.625a10.609 10.609 0 0 0-10.562-10.562H10.892A10.609 10.609 0 0 0 .33 516.177v-81.625a10.591 10.591 0 0 1 10.562-10.562z" class="cls-27" transform="translate(-.33 -423.99)"/>
                </g>
            </g>
            <path id="Path_1763" d="M10.892 423.99h434.876a10.591 10.591 0 0 1 10.562 10.562V600.56a10.609 10.609 0 0 1-10.562 10.562H10.892A10.609 10.609 0 0 1 .33 600.56V434.552a10.591 10.591 0 0 1 10.562-10.562z" class="cls-28" transform="translate(-.33 -423.99)"/>
            <text id="Accounts" class="cls-29" transform="translate(24.078 37.404)">
                <tspan x="0" y="0">Accounts</tspan>
            </text>
            <text id="Type_Status_of_Credit_Accounts" class="cls-30" transform="translate(23.911 63.3)">
                <tspan x="0" y="0">Type &amp; Status of Credit Accounts</tspan>
            </text>
            <text id="Open" class="cls-31" transform="translate(23.465 121.568)">
                <tspan x="0" y="0">Open</tspan>
            </text>
            <text id="_6" class="cls-38" transform="translate(23.465 151.993)">
                <tspan x="0" y="0">6</tspan>
            </text>
            <text id="Close" class="cls-31" transform="translate(139.952 121.568)">
                <tspan x="0" y="0">Close</tspan>
            </text>
            <text id="_17" class="cls-33" transform="translate(139.952 153.993)">
                <tspan x="0" y="0">17</tspan>
            </text>
        </g>
        <g id="Group_416" transform="translate(1201 2138.51)">
            <path id="Path_1764" d="M10.892 575.73h434.876a10.615 10.615 0 0 1 10.562 10.59v166.008a10.609 10.609 0 0 1-10.562 10.562H10.892A10.609 10.609 0 0 1 .33 752.328V586.32a10.615 10.615 0 0 1 10.562-10.59z" class="cls-17" transform="translate(-.33 -575.73)"/>
            <g id="Group_415" clip-path="url(#clip-path-7)">
                <g id="Group_414">
                    <path id="_1-7" d="M10.892 575.73h434.876a10.615 10.615 0 0 1 10.562 10.59v81.625a10.609 10.609 0 0 0-10.562-10.562H10.892A10.609 10.609 0 0 0 .33 667.944V586.32a10.615 10.615 0 0 1 10.562-10.59z" class="cls-27" transform="translate(-.33 -575.73)"/>
                </g>
            </g>
            <path id="Path_1766" d="M10.892 575.73h434.876a10.615 10.615 0 0 1 10.562 10.59v166.008a10.609 10.609 0 0 1-10.562 10.562H10.892A10.609 10.609 0 0 1 .33 752.328V586.32a10.615 10.615 0 0 1 10.562-10.59z" class="cls-28" transform="translate(-.33 -575.73)"/>
            <text id="Enquiries" class="cls-29" transform="translate(24.078 37.432)">
                <tspan x="0" y="0">Enquiries</tspan>
            </text>
            <text id="Loan_Credit_Card_applications" class="cls-30" transform="translate(23.911 63.328)">
                <tspan x="0" y="0">Loan / Credit Card applications</tspan>
            </text>
            <text id="Last_30_days" class="cls-31" transform="translate(23.465 121.596)">
                <tspan x="0" y="0">Last 30 days</tspan>
            </text>
            <text id="_0" class="cls-38" transform="translate(23.465 152.021)">
                <tspan x="0" y="0">0</tspan>
            </text>
        </g>
        <g id="Group_417" transform="translate(1610.768 914.196)">
            <g id="surface1">
                <path id="Path_1767" d="M166.682 136.679a.9.9 0 0 0-.613-.279H152.08a4.74 4.74 0 0 0-4.71 4.71v26.447a4.716 4.716 0 0 0 4.71 4.682h18.978a4.716 4.716 0 0 0 4.71-4.682v-21.013a.929.929 0 0 0-.251-.585zm.251 2.787l5.908 6.214H169a2.058 2.058 0 0 1-2.062-2.062v-4.152zm4.124 31.045H152.08a3 3 0 0 1-2.982-2.954V141.11a3 3 0 0 1 2.982-2.954h13.126v5.462a3.794 3.794 0 0 0 3.79 3.79h5.044v20.148a3 3 0 0 1-2.982 2.954zm.001-.001z" class="cls-2" transform="translate(-147.37 -136.4)"/>
                <path id="Path_1768" d="M164.7 146.5h-14.24a.864.864 0 0 0 0 1.728h14.24a.864.864 0 1 0 0-1.728zm0 0z" class="cls-2" transform="translate(-143.385 -118.354)"/>
                <path id="Path_1769" d="M155.642 153.778a.807.807 0 0 0 .641.279.79.79 0 0 0 .613-.279l5.072-5.434a.875.875 0 0 0-.028-1.226.85.85 0 0 0-1.226.056l-3.567 3.818v-9.447a.878.878 0 0 0-1.756 0v9.447l-3.567-3.818a.819.819 0 0 0-1.2-.056.852.852 0 0 0-.056 1.226l5.072 5.434zm0 0z" class="cls-2" transform="translate(-142.071 -128.753)"/>
            </g>
        </g>
    </g>
</svg>
