<svg xmlns="http://www.w3.org/2000/svg" width="63.734" height="45" viewBox="0 0 63.734 45">
  <g id="Group_11093" data-name="Group 11093" transform="translate(-158 -2137)">
    <g id="Group_424" data-name="Group 424" transform="translate(158 2142.808)">
      <rect id="Rectangle_233" data-name="Rectangle 233" width="57" height="13" transform="translate(0 13.192)" fill="#fff"/>
      <rect id="Rectangle_235" data-name="Rectangle 235" width="57" height="13" transform="translate(0 0.192)" fill="#fab446"/>
      <rect id="Rectangle_236" data-name="Rectangle 236" width="57" height="13" transform="translate(0 26.192)" fill="#73af00"/>
      <g id="Group_10754" data-name="Group 10754" transform="translate(22.338 14.454)">
        <path id="Path_2644" data-name="Path 2644" d="M202.864,208.177a5.312,5.312,0,1,1,5.312-5.312,5.312,5.312,0,0,1-5.312,5.312Zm0-9.636a4.324,4.324,0,1,0,4.324,4.324,4.324,4.324,0,0,0-4.324-4.324Z" transform="translate(-197.552 -197.552)" fill="#41479b"/>
        <circle id="Ellipse_84" data-name="Ellipse 84" cx="0.602" cy="0.602" r="0.602" transform="translate(4.71 4.71)" fill="#41479b"/>
        <path id="Path_2645" data-name="Path 2645" d="M207.8,253.642l-1.53.155-3.288-.155v-.181l3.288-.155,1.53.155Z" transform="translate(-202.494 -248.238)" fill="#41479b"/>
        <path id="Path_2646" data-name="Path 2646" d="M256,253.642l1.53.155,3.288-.155v-.181l-3.288-.155-1.53.155Z" transform="translate(-250.688 -248.238)" fill="#41479b"/>
        <path id="Path_2647" data-name="Path 2647" d="M253.461,207.8l-.155-1.53.155-3.288h.181l.155,3.288-.155,1.53Z" transform="translate(-248.238 -202.494)" fill="#41479b"/>
        <path id="Path_2648" data-name="Path 2648" d="M253.461,256l-.155,1.53.155,3.288h.181l.155-3.288-.155-1.53Z" transform="translate(-248.238 -250.688)" fill="#41479b"/>
        <path id="Path_2649" data-name="Path 2649" d="M221.22,221.348l-1.191-.973-2.215-2.434.128-.128,2.434,2.215.973,1.191Z" transform="translate(-215.971 -215.971)" fill="#41479b"/>
        <path id="Path_2650" data-name="Path 2650" d="M255.3,255.425l.973,1.191,2.434,2.215.128-.128-2.215-2.434-1.191-.973Z" transform="translate(-250.049 -250.048)" fill="#41479b"/>
        <path id="Path_2651" data-name="Path 2651" d="M255.3,221.22l.973-1.191,2.434-2.215.128.128-2.215,2.434-1.191.973Z" transform="translate(-250.049 -215.971)" fill="#41479b"/>
        <path id="Path_2652" data-name="Path 2652" d="M221.22,255.3l-1.191.973-2.215,2.434.128.128,2.434-2.215.973-1.191Z" transform="translate(-215.971 -250.049)" fill="#41479b"/>
        <path id="Path_2653" data-name="Path 2653" d="M211.164,255.249l-1.355.728-3.1,1.115-.069-.166,2.978-1.4,1.473-.443Z" transform="translate(-205.817 -249.852)" fill="#41479b"/>
        <path id="Path_2654" data-name="Path 2654" d="M255.686,236.807l1.473-.443,2.981-1.4-.069-.166-3.1,1.115-1.355.728Z" transform="translate(-250.342 -231.411)" fill="#41479b"/>
        <path id="Path_2655" data-name="Path 2655" d="M236.639,211.164l-.728-1.355-1.115-3.1.166-.069,1.4,2.978.443,1.473Z" transform="translate(-231.41 -205.817)" fill="#41479b"/>
        <path id="Path_2656" data-name="Path 2656" d="M255.082,255.686l.443,1.473,1.4,2.979.166-.069-1.115-3.1-.728-1.355Z" transform="translate(-249.852 -250.341)" fill="#41479b"/>
        <path id="Path_2657" data-name="Path 2657" d="M211.1,236.807l-1.473-.443-2.978-1.4.069-.166,3.1,1.115,1.355.728Z" transform="translate(-205.817 -231.411)" fill="#41479b"/>
        <path id="Path_2658" data-name="Path 2658" d="M255.62,255.249l1.355.728,3.1,1.115.069-.166-2.979-1.4-1.473-.443Z" transform="translate(-250.342 -249.852)" fill="#41479b"/>
        <path id="Path_2659" data-name="Path 2659" d="M255.082,211.1l.443-1.473,1.4-2.978.166.069-1.115,3.1-.728,1.355Z" transform="translate(-249.852 -205.817)" fill="#41479b"/>
        <path id="Path_2660" data-name="Path 2660" d="M236.639,255.62l-.728,1.355-1.115,3.1.166.069,1.4-2.979.443-1.473Z" transform="translate(-231.41 -250.342)" fill="#41479b"/>
      </g>
    </g>
    <g id="Group_423" data-name="Group 423" transform="translate(196.195 2137)">
      <g id="Ellipse_87" data-name="Ellipse 87" transform="translate(0 0)" fill="#fff" stroke="#41479b" stroke-width="1">
        <circle cx="12.77" cy="12.77" r="12.77" stroke="none"/>
        <circle cx="12.77" cy="12.77" r="12.27" fill="none"/>
      </g>
      <path id="Intersection_2" data-name="Intersection 2" d="M0,16.394c.043-.026.085-.049.131-.072l4.487-2.266a.434.434,0,0,1,.341-.019.426.426,0,0,1,.248.238c.8,2.652,4.737,4.194,7.008,0a.432.432,0,0,1,.591-.22l4.49,2.266a2.189,2.189,0,0,1,.426.283A11.392,11.392,0,0,1,0,16.394Zm3.9-5.886c-.716-.041-1.251-.966-1.251-2.185a3.757,3.757,0,0,1,.131-.989,5.877,5.877,0,0,1-.13-1.2,6.07,6.07,0,1,1,12.14,0,5.942,5.942,0,0,1-.136,1.2,3.509,3.509,0,0,1,.133.988c0,1.219-.535,2.145-1.248,2.185-.791,2.635-2.687,4.378-4.823,4.378S4.684,13.144,3.9,10.508Zm.456-.917a.45.45,0,0,1,.272.29c.607,2.47,2.249,4.128,4.088,4.128S12.2,12.351,12.8,9.881a.45.45,0,0,1,.256-.3.432.432,0,0,1,.39.036c.152.019.462-.448.462-1.292a3.01,3.01,0,0,0-.04-.505l-.79.065a.159.159,0,0,1-.036,0,.431.431,0,0,1-.4-.261,6.661,6.661,0,0,1-.44-1.5A7.878,7.878,0,0,1,7.584,4.173c-.345.606-1.094,1.088-2.592,1.088H4.924A6.473,6.473,0,0,0,4.8,7.3a.39.39,0,0,1,.027.149.441.441,0,0,1-.442.439H4.371a.448.448,0,0,1-.056-.005c-.006,0-.367-.055-.758-.079a3.007,3.007,0,0,0-.043.521c0,.847.323,1.311.432,1.311A.494.494,0,0,1,4.2,9.562a.414.414,0,0,1,.152.028Zm5.664-.83a.437.437,0,1,1,0-.874h.866a.437.437,0,1,1,0,.874Zm-3.469,0a.437.437,0,1,1,0-.874h.867a.437.437,0,1,1,0,.874Z" transform="translate(3.909 4.672)" fill="#41479b"/>
    </g>
  </g>
</svg>
