<?xml version="1.0" encoding="UTF-8"?>
<!DOCTYPE svg PUBLIC "-//W3C//DTD SVG 1.1//EN" "http://www.w3.org/Graphics/SVG/1.1/DTD/svg11.dtd">
<!-- Creator: CorelDRAW 2019 (64-Bit) -->
<svg xmlns="http://www.w3.org/2000/svg" xml:space="preserve" width="1095px" height="298px" version="1.1" style="shape-rendering:geometricPrecision; text-rendering:geometricPrecision; image-rendering:optimizeQuality; fill-rule:evenodd; clip-rule:evenodd"
viewBox="0 0 967.05 263.25"
 xmlns:xlink="http://www.w3.org/1999/xlink">
 <defs>
  <style type="text/css">
   <![CDATA[
    .fil3 {fill:#2C3791}
    .fil2 {fill:#3A74B4}
    .fil0 {fill:#2C3791;fill-rule:nonzero}
    .fil1 {fill:#3A74B4;fill-rule:nonzero}
   ]]>
  </style>
 </defs>
 <g id="Layer_x0020_1">
  <metadata id="CorelCorpID_0Corel-Layer"/>
  <g id="_1265629949600">
   <g>
    <path class="fil0" d="M199.26 64.61c-6.54,-2.7 -13.7,-4.2 -21.22,-4.2 -7.52,0 -14.69,1.5 -21.23,4.2 -6.78,2.81 -12.89,6.94 -18.01,12.06 -5.12,5.12 -9.25,11.23 -12.05,18.01 -2.71,6.54 -4.21,13.7 -4.21,21.22 0,7.52 1.5,14.69 4.21,21.23 2.81,6.78 6.93,12.89 12.05,18.01 5.12,5.12 11.23,9.24 18.01,12.06 6.54,2.7 13.71,4.2 21.23,4.2 7.52,0 14.68,-1.5 21.22,-4.2 6.78,-2.82 12.89,-6.94 18.01,-12.06 3.65,-3.64 6.79,-7.79 9.31,-12.32 1.68,-3.03 5.12,-10.6 5.98,-16.41l-17.16 0c-1.31,3.5 -2.68,6.97 -4.69,10.14 -1.53,2.43 -3.33,4.67 -5.34,6.69 -3.56,3.56 -7.82,6.43 -12.55,8.39 -4.56,1.89 -9.55,2.93 -14.78,2.93 -5.24,0 -10.23,-1.04 -14.78,-2.93 -4.74,-1.96 -9,-4.83 -12.56,-8.39 -3.56,-3.56 -6.43,-7.82 -8.39,-12.56 -0.98,-2.37 -1.74,-4.87 -2.23,-7.46 30.99,0 61.98,0 92.97,0 0.14,-1.09 0.26,-2.2 0.34,-3.31 0.09,-1.31 0.14,-2.65 0.14,-4.01 0,-7.52 -1.5,-14.68 -4.2,-21.22 -2.81,-6.78 -6.94,-12.89 -12.06,-18.01 -5.12,-5.12 -11.23,-9.25 -18.01,-12.06zm-59.05 43.31c0.49,-2.35 1.2,-4.62 2.1,-6.8 1.96,-4.73 4.83,-8.99 8.39,-12.55 3.56,-3.56 7.82,-6.43 12.56,-8.39 4.55,-1.89 9.54,-2.93 14.78,-2.93 5.23,0 10.22,1.04 14.78,2.93 4.73,1.96 8.99,4.83 12.55,8.39 3.56,3.56 6.43,7.82 8.39,12.55 0.9,2.18 1.61,4.45 2.1,6.8l-75.65 0z"/>
    <polygon class="fil1" points="894.89,0 894.89,85.2 878.06,85.2 878.06,0 "/>
    <polygon class="fil0" points="108.41,171.4 68.24,121.06 81.4,110.6 129.91,171.4 "/>
    <path class="fil0" d="M8.64 2.24l57.38 0c16.42,0 31.35,6.72 42.17,17.53 10.81,10.82 17.53,25.75 17.53,42.17 0,16.43 -6.72,31.36 -17.53,42.17 -10.82,10.82 -25.75,17.54 -42.17,17.54l-57.38 0 0 -16.84 57.38 0c11.77,0 22.49,-4.83 30.26,-12.6 7.77,-7.78 12.6,-18.49 12.6,-30.27 0,-11.77 -4.83,-22.49 -12.6,-30.26 -7.77,-7.77 -18.49,-12.6 -30.26,-12.6l-57.38 0 0 -16.84z"/>
    <polygon class="fil1" points="16.84,2.24 16.84,171.4 0,171.4 0,2.24 "/>
    <path class="fil0" d="M314.68 63.95c-6.07,-2.29 -12.66,-3.54 -19.54,-3.54 -7.52,0 -14.69,1.5 -21.22,4.2 -6.79,2.81 -12.9,6.94 -18.02,12.06 -5.11,5.12 -9.24,11.23 -12.05,18.01 -2.7,6.54 -4.2,13.7 -4.2,21.22 0,7.52 1.5,14.69 4.2,21.23 2.81,6.78 6.94,12.89 12.05,18.01 5.12,5.12 11.23,9.24 18.02,12.06 6.53,2.7 13.7,4.2 21.22,4.2 6.88,0 13.47,-1.26 19.54,-3.54l0 -18.6c-1.52,0.89 -3.11,1.69 -4.76,2.37 -4.55,1.89 -9.55,2.93 -14.78,2.93 -5.23,0 -10.22,-1.04 -14.78,-2.93 -4.73,-1.96 -8.99,-4.83 -12.55,-8.39 -3.56,-3.56 -6.43,-7.82 -8.39,-12.56 -1.89,-4.55 -2.93,-9.55 -2.93,-14.78 0,-5.23 1.04,-10.22 2.93,-14.78 1.96,-4.73 4.83,-8.99 8.39,-12.55 3.56,-3.56 7.82,-6.43 12.55,-8.39 4.56,-1.89 9.55,-2.93 14.78,-2.93 5.23,0 10.23,1.04 14.78,2.93 1.65,0.68 3.24,1.47 4.76,2.37l0 -18.6z"/>
    <path class="fil0" d="M372.85 61.18c15.22,0 29,6.17 38.97,16.14 9.97,9.97 16.14,23.75 16.14,38.97 0,15.21 -6.17,28.99 -16.14,38.96 -9.97,9.98 -23.75,16.15 -38.97,16.15 -15.22,0 -28.99,-6.17 -38.96,-16.15 -9.98,-9.97 -16.15,-23.75 -16.15,-38.96 0,-15.22 6.17,-29 16.14,-38.97 9.98,-9.97 23.75,-16.14 38.97,-16.14zm27.06 28.05c-6.92,-6.93 -16.49,-11.21 -27.06,-11.21 -10.57,0 -20.13,4.28 -27.06,11.21 -6.92,6.92 -11.21,16.49 -11.21,27.06 0,10.56 4.29,20.13 11.21,27.06 6.93,6.92 16.49,11.21 27.06,11.21 10.57,0 20.14,-4.29 27.06,-11.21 6.93,-6.93 11.21,-16.5 11.21,-27.06 0,-10.57 -4.28,-20.14 -11.21,-27.06z"/>
    <path class="fil0" d="M511.54 64.61c-6.53,-2.7 -13.7,-4.2 -21.22,-4.2 -7.52,0 -14.69,1.5 -21.22,4.2 -6.79,2.81 -12.9,6.94 -18.02,12.06 -0.54,0.54 -1.08,1.1 -1.6,1.67l0 29.01 1.13 4.4c0.49,-2.53 3.16,-8.63 3.99,-10.63 1.96,-4.73 4.83,-8.99 8.39,-12.55 3.56,-3.56 7.82,-6.43 12.55,-8.39 4.56,-1.89 9.55,-2.93 14.78,-2.93 5.23,0 10.23,1.04 14.78,2.93 4.74,1.96 8.99,4.83 12.55,8.39 3.11,3.11 5.7,6.75 7.61,10.78l0 -26.56c-4.13,-3.35 -8.74,-6.12 -13.72,-8.18z"/>
    <polygon class="fil1" points="450.82,62.07 450.82,171.4 433.98,171.4 433.98,62.07 "/>
    <path class="fil0" d="M587.17 61.18c15.21,0 28.99,6.17 38.96,16.14 9.98,9.97 16.14,23.75 16.14,38.97 0,15.21 -6.16,28.99 -16.14,38.96 -9.97,9.98 -23.75,16.15 -38.96,16.15 -15.22,0 -29,-6.17 -38.97,-16.15 -9.97,-9.97 -16.14,-23.75 -16.14,-38.96 0,-15.22 6.17,-29 16.14,-38.97 9.97,-9.97 23.75,-16.14 38.97,-16.14zm27.06 28.05c-6.93,-6.93 -16.5,-11.21 -27.06,-11.21 -10.57,0 -20.14,4.28 -27.07,11.21 -6.92,6.92 -11.21,16.49 -11.21,27.06 0,10.56 4.29,20.13 11.21,27.06 6.93,6.92 16.5,11.21 27.07,11.21 10.56,0 20.13,-4.29 27.06,-11.21 6.92,-6.93 11.21,-16.5 11.21,-27.06 0,-10.57 -4.29,-20.14 -11.21,-27.06z"/>
    <polygon class="fil1" points="642.94,2.24 642.94,171.4 626.1,171.4 626.1,2.24 "/>
    <path class="fil0" d="M725.09 64.61c-6.53,-2.7 -13.7,-4.2 -21.22,-4.2 -7.52,0 -14.69,1.5 -21.22,4.2 -6.79,2.81 -12.9,6.94 -18.02,12.06 -5.12,5.12 -9.24,11.23 -12.05,18.01 -2.71,6.54 -4.2,13.7 -4.2,21.22 0,7.52 1.49,14.69 4.2,21.23 2.81,6.78 6.93,12.89 12.05,18.01 5.12,5.12 11.23,9.24 18.02,12.06 6.53,2.7 13.7,4.2 21.22,4.2 7.52,0 14.69,-1.5 21.22,-4.2 6.79,-2.82 12.9,-6.94 18.02,-12.06 3.64,-3.64 6.78,-7.79 9.3,-12.32 1.68,-3.03 5.13,-10.6 5.99,-16.41l-17.17 0c-1.31,3.5 -2.68,6.97 -4.68,10.14 -1.54,2.43 -3.34,4.67 -5.35,6.69 -3.56,3.56 -7.82,6.43 -12.55,8.39 -4.56,1.89 -9.55,2.93 -14.78,2.93 -5.23,0 -10.23,-1.04 -14.78,-2.93 -4.74,-1.96 -8.99,-4.83 -12.55,-8.39 -3.56,-3.56 -6.43,-7.82 -8.39,-12.56 -0.99,-2.37 -1.74,-4.87 -2.24,-7.46 30.99,0 61.98,0 92.97,0 0.15,-1.09 0.26,-2.2 0.34,-3.31 0.09,-1.31 0.14,-2.65 0.14,-4.01 0,-7.52 -1.49,-14.68 -4.2,-21.22 -2.81,-6.78 -6.93,-12.89 -12.05,-18.01 -5.12,-5.12 -11.23,-9.25 -18.02,-12.06zm-59.05 43.31c0.5,-2.35 1.21,-4.62 2.11,-6.8 1.96,-4.73 4.83,-8.99 8.39,-12.55 3.56,-3.56 7.81,-6.43 12.55,-8.39 4.55,-1.89 9.55,-2.93 14.78,-2.93 5.23,0 10.22,1.04 14.78,2.93 4.73,1.96 8.99,4.83 12.55,8.39 3.56,3.56 6.43,7.82 8.39,12.55 0.9,2.18 1.61,4.45 2.1,6.8l-75.65 0z"/>
    <path class="fil0" d="M767.45 171.4l0 -53.74c0,-15.4 5.95,-29.45 15.53,-39.67 9.69,-10.35 23.11,-16.77 37.9,-16.77 14.78,0 28.2,6.42 37.89,16.77 9.58,10.22 15.53,24.27 15.53,39.67l0 53.74 -16.84 0 0 -53.74c0,-11 -4.18,-20.97 -10.92,-28.16 -6.62,-7.06 -15.7,-11.44 -25.66,-11.44 -9.97,0 -19.05,4.38 -25.67,11.44 -6.74,7.19 -10.92,17.16 -10.92,28.16l0 53.74 -16.84 0z"/>
    <polygon class="fil1" points="783.77,62.07 783.77,171.4 766.94,171.4 766.94,62.07 "/>
    <path class="fil0" d="M922.06 85.06l0 16.84 -27.17 0 0 13.05c0,11.01 4.19,20.97 10.92,28.16 6.62,7.06 15.71,11.45 25.67,11.45 14.28,0 27.56,-10.37 35.55,-21.56l0 23.95c-1.18,1.12 -2.4,2.18 -3.68,3.19 -8.94,7.06 -19.97,11.26 -31.87,11.26 -14.79,0 -28.21,-6.43 -37.9,-16.78 -9.58,-10.22 -15.52,-24.26 -15.52,-39.67l0 -29.93c14.68,0 29.3,0.04 44,0.04z"/>
    <polygon class="fil2" points="0,188.05 967.05,188.05 967.05,201.06 0,201.06 "/>
   </g>
   <path class="fil3" d="M605.24 238.34c4.12,0 7.46,3.34 7.46,7.46 0,4.12 -3.34,7.46 -7.46,7.46 -4.12,0 -7.47,-3.34 -7.47,-7.46 0,-4.12 3.35,-7.46 7.47,-7.46z"/>
   <path class="fil0" d="M5.29 262.55l5.28 0 0 -33.59 -5.28 0 0 33.59zm44.28 -34.34l-16.07 24.44 -16.08 -24.44 -0.4 0 0 34.34 5.28 0 0 -18.65 11.19 18.09 0.03 0 11.17 -18.08 0 18.64 5.28 0 0 -34.34 -0.4 0zm6.83 34.34l5.28 0 0 -11.65 5.97 0c6.51,0 11.83,-4.86 11.83,-10.85 0,-6.1 -5.32,-11.09 -11.83,-11.09l-11.25 0 0 33.59zm11.25 -16.85l-5.97 -0.02 0 -11.48 5.97 0c3.6,0 6.55,2.6 6.55,5.81 0,3.15 -2.95,5.71 -6.55,5.69zm40.97 16.85l-9.76 -13.42c3.85,-1.26 6.63,-5.03 6.63,-9.37 0,-5.98 -5.11,-10.8 -11.37,-10.8l-10.45 0 0.02 33.59 5.27 0 0 -12.98 4.14 0 9.05 12.98 6.47 0zm-19.69 -17.37l0 -10.98 5.31 0c3.13,0 5.83,2.31 5.83,5.44 0,3 -2.65,5.57 -5.83,5.54l-5.31 0zm38.97 17.92c9.57,0 17.39,-7.78 17.39,-17.3 0,-9.59 -7.82,-17.44 -17.36,-17.44 -9.57,0 -17.37,7.85 -17.37,17.44 0,9.52 7.8,17.3 17.34,17.3zm0 -5.32c-6.62,0 -12.02,-5.4 -12.02,-12.02 0,-6.65 5.4,-12.07 12.02,-12.07 6.63,0 12.07,5.42 12.07,12.07 0,6.62 -5.44,12.02 -12.07,12.02zm42.08 -28.82l-10.04 22.74 -10 -22.74 -5.61 0 15.44 34.29 0.35 0 15.5 -34.29 -5.64 0zm9.38 33.59l5.28 0 0 -33.59 -5.28 0 0 33.59zm33.46 -33.68l0 21.91 -21.43 -22.41 -0.3 0 0 34.22 5.28 0 0 -21.9 21.53 22.42 0.21 0 0 -34.24 -5.29 0zm43.53 15.32l-15.91 0 0 4.83 10.42 0 0 0.1c0,5.13 -4.34,8.66 -10.12,8.66 -7.18,0 -12.42,-5.42 -12.42,-12.01 0,-6.95 5.8,-12.08 11.94,-12.08 3.19,0 6.74,1.63 9.37,4.21l2.94 -4.38c-3.17,-3.09 -8.01,-5.13 -12.25,-5.16 -9.56,0 -17.34,7.87 -17.34,17.41 0,9.52 7.74,17.33 17.53,17.33 8.74,0 15.99,-6.3 15.99,-16.29 0,-0.93 -0.07,-1.85 -0.15,-2.62zm33.33 18.92c5,0 8.69,-2.2 11.59,-5.05l-3.05 -4.25c-2.31,2.3 -5.27,4 -8.7,4 -6.03,0 -11.93,-5.23 -11.93,-12.01 0,-6.76 5.81,-12.11 11.9,-12.11 3.3,0 6.36,1.57 8.72,3.93l3.06 -4.14c-3.3,-3.21 -7.31,-5.06 -11.67,-5.12 -9.45,0 -17.33,7.92 -17.33,17.4 0,9.51 7.88,17.35 17.41,17.35zm30.1 -0.01c9.56,0 17.38,-7.78 17.38,-17.3 0,-9.59 -7.82,-17.44 -17.36,-17.44 -9.57,0 -17.37,7.85 -17.37,17.44 0,9.52 7.8,17.3 17.35,17.3zm0 -5.32c-6.63,0 -12.03,-5.4 -12.03,-12.02 0,-6.65 5.4,-12.07 12.03,-12.07 6.62,0 12.06,5.42 12.06,12.07 0,6.62 -5.44,12.02 -12.06,12.02zm27.49 -0.48l0 -28.34 -5.28 0 0 33.59 20.27 0 0 -5.25 -14.99 0zm24.47 0l0 -28.34 -5.28 0 0 33.59 20.27 0 0 -5.25 -14.99 0zm39.2 -23.14l0 -5.2 -20.01 0 0 33.59 20.01 0 0 -5.25 -14.74 0 0 -9.31 12.72 0 0 -5.25 -12.72 0 0 -8.58 14.74 0zm21.31 28.95c5,0 8.69,-2.2 11.59,-5.05l-3.05 -4.25c-2.31,2.3 -5.27,4 -8.7,4 -6.03,0 -11.93,-5.23 -11.93,-12.01 0,-6.76 5.81,-12.11 11.9,-12.11 3.3,0 6.36,1.57 8.72,3.93l3.06 -4.14c-3.29,-3.21 -7.31,-5.06 -11.67,-5.12 -9.45,0 -17.33,7.92 -17.33,17.4 0,9.51 7.88,17.35 17.41,17.35zm36.84 -34.15l-23.29 0 0 5.24 9 0 0 28.35 5.29 0 0 -28.35 9 0 0 -5.24zm4.17 33.59l5.28 0 0 -33.59 -5.28 0 0 33.59zm27.5 0.55c9.56,0 17.39,-7.78 17.39,-17.3 0,-9.59 -7.83,-17.44 -17.37,-17.44 -9.56,0 -17.37,7.85 -17.37,17.44 0,9.52 7.81,17.3 17.35,17.3zm0 -5.32c-6.62,0 -12.02,-5.4 -12.02,-12.02 0,-6.65 5.4,-12.07 12.02,-12.07 6.62,0 12.07,5.42 12.07,12.07 0,6.62 -5.45,12.02 -12.07,12.02zm43.93 -28.91l0 21.91 -21.43 -22.41 -0.29 0 0 34.22 5.28 0 0 -21.9 21.52 22.42 0.22 0 0 -34.24 -5.3 0zm21.46 34.23c6.81,0 11.98,-3.84 11.98,-9.8 0,-5.29 -4.13,-7.85 -9.44,-10.18 -4.07,-1.75 -7.18,-2.69 -7.18,-5.31 0,-2.37 2.46,-4.29 5.54,-4.29 2.43,0 4.75,1.27 5.78,3.54l3.92 -2.7c-1.38,-3.69 -4.95,-6 -9.74,-6 -6.04,0 -10.82,3.83 -10.82,9.32 0,5.27 4.38,7.31 8.32,9.06 3.91,1.69 8.32,3.56 8.32,6.66 0,2.56 -2.84,4.38 -6.61,4.38 -3.23,0 -6.02,-1.5 -7.52,-4.13l-4.17 2.98c1.91,3.88 6.11,6.47 11.62,6.47z"/>
   <path class="fil0" d="M658.34 262.55l-9.75 -13.42c3.85,-1.26 6.63,-5.03 6.63,-9.37 0,-5.98 -5.11,-10.8 -11.37,-10.8l-10.45 0 0.02 33.59 5.27 0 0 -12.98 4.14 0 9.05 12.98 6.46 0zm-19.68 -17.37l0 -10.98 5.3 0c3.14,0 5.84,2.31 5.84,5.44 0,3 -2.66,5.57 -5.84,5.54l-5.3 0zm43.22 -11.02l0 -5.2 -20.01 0 0 33.59 20.01 0 0 -5.25 -14.74 0 0 -9.31 12.72 0 0 -5.25 -12.72 0 0 -8.58 14.74 0zm15.06 -5.22l-9.56 0 0 33.61 9.56 0c10.67,0 17.31,-6.44 17.31,-16.75 0,-10.42 -6.64,-16.88 -17.31,-16.86zm0.05 28.35l-4.36 0 0 -23.12 4.29 0c7.37,0.01 12,4.48 12,11.6 0,7.09 -4.61,11.53 -11.93,11.53l0 -0.01zm34.49 5.85c7.16,0 12.73,-5.63 12.73,-13.34l0 -20.84 -5.32 0 0 20.82c0,4.65 -3.32,8.04 -7.43,8.04 -4.12,0 -7.39,-3.39 -7.39,-8.04l0 -20.82 -5.29 0 0 20.84c0,7.71 5.54,13.34 12.7,13.34zm34.66 -0.03c5,0 8.7,-2.2 11.59,-5.05l-3.04 -4.25c-2.31,2.3 -5.27,4 -8.71,4 -6.03,0 -11.93,-5.23 -11.93,-12.01 0,-6.76 5.82,-12.11 11.91,-12.11 3.29,0 6.35,1.57 8.71,3.93l3.06 -4.14c-3.29,-3.21 -7.31,-5.06 -11.67,-5.12 -9.44,0 -17.33,7.92 -17.33,17.4 0,9.51 7.89,17.35 17.41,17.35zm15.77 -0.56l5.28 0 0 -33.59 -5.28 0 0 33.59zm33.45 -33.68l0 21.91 -21.43 -22.41 -0.29 0 0 34.22 5.28 0 0 -21.9 21.52 22.42 0.22 0 0 -34.24 -5.3 0zm43.53 15.32l-15.9 0 0 4.83 10.42 0 0 0.1c0,5.13 -4.34,8.66 -10.13,8.66 -7.17,0 -12.41,-5.42 -12.41,-12.01 0,-6.95 5.8,-12.08 11.94,-12.08 3.19,0 6.74,1.63 9.37,4.21l2.94 -4.38c-3.17,-3.09 -8.02,-5.13 -12.25,-5.16 -9.56,0 -17.34,7.87 -17.34,17.41 0,9.52 7.74,17.33 17.53,17.33 8.74,0 15.98,-6.3 15.98,-16.29 0,-0.93 -0.06,-1.85 -0.15,-2.62zm42.48 18.36l-9.75 -13.42c3.84,-1.26 6.63,-5.03 6.63,-9.37 0,-5.98 -5.11,-10.8 -11.37,-10.8l-10.45 0 0.02 33.59 5.27 0 0 -12.98 4.13 0 9.05 12.98 6.47 0zm-19.69 -17.37l0 -10.98 5.31 0c3.14,0 5.84,2.31 5.84,5.44 0,3 -2.66,5.57 -5.84,5.54l-5.31 0zm23.21 17.37l5.28 0 0 -33.59 -5.28 0 0 33.59zm21.44 0.55c6.81,0 11.97,-3.84 11.97,-9.8 0,-5.29 -4.12,-7.85 -9.43,-10.18 -4.08,-1.75 -7.18,-2.69 -7.18,-5.31 0,-2.37 2.46,-4.29 5.54,-4.29 2.43,0 4.74,1.27 5.78,3.54l3.92 -2.7c-1.38,-3.69 -4.96,-6 -9.75,-6 -6.03,0 -10.81,3.83 -10.81,9.32 0,5.27 4.38,7.31 8.32,9.06 3.91,1.69 8.32,3.56 8.32,6.66 0,2.56 -2.85,4.38 -6.62,4.38 -3.22,0 -6.01,-1.5 -7.52,-4.13l-4.17 2.98c1.92,3.88 6.12,6.47 11.63,6.47zm40.65 -0.55l-13.11 -17.11 11.92 -16.48 -6.13 0 -11.54 16.08 0 -16.08 -5.25 0 0 33.59 5.25 0 0 -16.26 12.42 16.26 6.44 0z"/>
  </g>
 </g>
</svg>
