<svg xmlns="http://www.w3.org/2000/svg" width="66.96" height="47.418" viewBox="0 0 66.96 47.418">
  <g id="Group_11092" data-name="Group 11092" transform="translate(-1404.851 -2903)">
    <g id="Group_428" data-name="Group 428" transform="translate(1404.851 2911.204)">
      <rect id="Rectangle_921" data-name="Rectangle 921" width="56.934" height="2.841" transform="translate(0.015 36.373)" fill="#f5f5f5"/>
      <g id="Group_427" data-name="Group 427" transform="translate(0 0)">
        <rect id="Rectangle_919" data-name="Rectangle 919" width="56.934" height="2.841" transform="translate(0.015 13.993)" fill="#f5f5f5"/>
        <rect id="Rectangle_919-2" data-name="Rectangle 919" width="46.826" height="2.841" transform="translate(10.123 2.842)" fill="#f5f5f5"/>
        <rect id="Rectangle_920" data-name="Rectangle 920" width="56.934" height="2.841" transform="translate(0.015 19.584)" fill="#f5f5f5"/>
        <rect id="Rectangle_920-2" data-name="Rectangle 920" width="46.826" height="2.841" transform="translate(10.123 8.388)" fill="#f5f5f5"/>
        <rect id="Rectangle_920-3" data-name="Rectangle 920" width="56.934" height="2.841" transform="translate(0.015 30.689)" fill="#f5f5f5"/>
        <rect id="Rectangle_921-2" data-name="Rectangle 921" width="56.934" height="2.841" transform="translate(0.015 25.176)" fill="#f5f5f5"/>
        <rect id="Rectangle_922" data-name="Rectangle 922" width="56.934" height="2.841" transform="translate(0.015 11.197)" fill="#ff4b55"/>
        <rect id="Rectangle_922-2" data-name="Rectangle 922" width="46.826" height="2.841" transform="translate(10.123)" fill="#ff4b55"/>
        <rect id="Rectangle_923" data-name="Rectangle 923" width="56.934" height="2.841" transform="translate(0.015 16.788)" fill="#ff4b55"/>
        <rect id="Rectangle_923-2" data-name="Rectangle 923" width="46.826" height="2.841" transform="translate(10.123 5.683)" fill="#ff4b55"/>
        <rect id="Rectangle_923-3" data-name="Rectangle 923" width="56.934" height="2.841" transform="translate(0.015 27.985)" fill="#ff4b55"/>
        <rect id="Rectangle_924" data-name="Rectangle 924" width="56.934" height="2.841" transform="translate(0.015 22.38)" fill="#ff4b55"/>
        <rect id="Rectangle_924-2" data-name="Rectangle 924" width="56.934" height="2.841" transform="translate(0.015 33.531)" fill="#ff4b55"/>
        <path id="Path_2600" data-name="Path 2600" d="M19.86,0H-.048l.015,19.893H19.86Z" transform="translate(0.048 0.014)" fill="#41479b"/>
        <path id="Path_2602" data-name="Path 2602" d="M26.825,77.179l.153.46.485,0a.066.066,0,0,1,.038.118l-.39.288.146.464a.066.066,0,0,1-.1.073l-.395-.279-.394.282a.066.066,0,0,1-.1-.073l.146-.464-.39-.288a.066.066,0,0,1,.038-.118l.485,0,.153-.46a.066.066,0,0,1,.124,0Z" transform="translate(-24.107 -71.557)" fill="#f5f5f5"/>
        <path id="Path_2603" data-name="Path 2603" d="M26.825,136.116l.153.46.485,0a.066.066,0,0,1,.038.118l-.39.288.146.464a.066.066,0,0,1-.1.073l-.394-.282-.394.282a.066.066,0,0,1-.1-.073l.146-.464-.39-.288a.066.066,0,0,1,.038-.118l.485,0,.153-.46a.066.066,0,0,1,.123,0Z" transform="translate(-24.107 -126.393)" fill="#f5f5f5"/>
        <path id="Path_2604" data-name="Path 2604" d="M26.825,190.262l.153.46.485,0a.066.066,0,0,1,.038.118l-.39.288.146.464a.066.066,0,0,1-.1.073l-.394-.282-.394.282a.066.066,0,0,1-.1-.073l.146-.464-.39-.288a.066.066,0,0,1,.038-.118l.485,0,.153-.46a.066.066,0,0,1,.123,0Z" transform="translate(-24.107 -176.693)" fill="#f5f5f5"/>
        <path id="Path_2605" data-name="Path 2605" d="M26.825,239.534l.153.46.485,0a.066.066,0,0,1,.038.118l-.39.288.146.464a.066.066,0,0,1-.1.073l-.394-.282-.394.282a.066.066,0,0,1-.1-.073l.146-.464-.39-.288a.066.066,0,0,1,.038-.118l.485,0,.153-.46a.066.066,0,0,1,.123,0Z" transform="translate(-24.107 -222.465)" fill="#f5f5f5"/>
        <path id="Path_2606" data-name="Path 2606" d="M52.691,49.209l.153.46.485,0a.066.066,0,0,1,.038.118l-.39.288.146.464a.066.066,0,0,1-.1.073l-.394-.282-.394.282a.066.066,0,0,1-.1-.073l.146-.464-.39-.288a.066.066,0,0,1,.038-.118l.485,0,.153-.46a.066.066,0,0,1,.123,0Z" transform="translate(-48.107 -45.603)" fill="#f5f5f5"/>
        <path id="Path_2606-2" data-name="Path 2606" d="M52.691,49.209l.153.46.485,0a.066.066,0,0,1,.038.118l-.39.288.146.464a.066.066,0,0,1-.1.073l-.394-.282-.394.282a.066.066,0,0,1-.1-.073l.146-.464-.39-.288a.066.066,0,0,1,.038-.118l.485,0,.153-.46a.066.066,0,0,1,.123,0Z" transform="translate(-50.004 -47.5)" fill="#f5f5f5"/>
        <path id="Path_2607" data-name="Path 2607" d="M52.689,108.142l.153.46.485,0a.066.066,0,0,1,.038.118l-.39.288.146.464a.066.066,0,0,1-.1.073l-.394-.282-.394.282a.066.066,0,0,1-.1-.073l.146-.464-.39-.288a.066.066,0,0,1,.038-.118l.485,0,.153-.46a.066.066,0,0,1,.123,0Z" transform="translate(-48.105 -100.406)" fill="#f5f5f5"/>
        <path id="Path_2608" data-name="Path 2608" d="M52.689,164.133l.153.46.485,0a.066.066,0,0,1,.038.118l-.39.288.146.464a.066.066,0,0,1-.1.073l-.394-.282-.394.282a.066.066,0,0,1-.1-.073l.146-.464-.39-.288a.066.066,0,0,1,.038-.118l.485,0,.153-.46a.066.066,0,0,1,.123,0Z" transform="translate(-48.105 -152.42)" fill="#f5f5f5"/>
        <path id="Path_2609" data-name="Path 2609" d="M52.689,214.415l.153.46.485,0a.066.066,0,0,1,.038.118l-.39.288.146.464a.066.066,0,0,1-.1.073l-.394-.282-.394.282a.066.066,0,0,1-.1-.073l.146-.464-.39-.288a.066.066,0,0,1,.038-.118l.485,0,.153-.46a.066.066,0,0,1,.123,0Z" transform="translate(-48.105 -199.13)" fill="#f5f5f5"/>
        <path id="Path_2610" data-name="Path 2610" d="M78.552,24.046l.153.46.485,0a.066.066,0,0,1,.038.118l-.39.288.146.464a.066.066,0,0,1-.1.073l-.394-.282-.394.282a.066.066,0,0,1-.1-.073l.146-.464-.39-.288a.066.066,0,0,1,.038-.118l.485,0,.153-.46a.066.066,0,0,1,.123,0Z" transform="translate(-72.102 -22.256)" fill="#f5f5f5"/>
        <path id="Path_2611" data-name="Path 2611" d="M78.552,77.179l.153.46.485,0a.066.066,0,0,1,.038.118l-.39.288.146.464a.066.066,0,0,1-.1.073L78.49,78.3l-.394.282a.066.066,0,0,1-.1-.073l.146-.464-.39-.288a.066.066,0,0,1,.038-.118l.485,0,.153-.46a.066.066,0,0,1,.123,0Z" transform="translate(-72.102 -71.557)" fill="#f5f5f5"/>
        <path id="Path_2612" data-name="Path 2612" d="M78.552,136.116l.153.46.485,0a.066.066,0,0,1,.038.118l-.39.288.146.464a.066.066,0,0,1-.1.073l-.394-.282-.394.282a.066.066,0,0,1-.1-.073l.146-.464-.39-.288a.066.066,0,0,1,.038-.118l.485,0,.153-.46a.066.066,0,0,1,.123,0Z" transform="translate(-72.102 -126.393)" fill="#f5f5f5"/>
        <path id="Path_2613" data-name="Path 2613" d="M78.552,190.262l.153.46.485,0a.066.066,0,0,1,.038.118l-.39.288.146.464a.066.066,0,0,1-.1.073l-.394-.282-.394.282a.066.066,0,0,1-.1-.073l.146-.464-.39-.288a.066.066,0,0,1,.038-.118l.485,0,.153-.46a.066.066,0,0,1,.123,0Z" transform="translate(-72.102 -176.693)" fill="#f5f5f5"/>
        <path id="Path_2614" data-name="Path 2614" d="M78.552,239.534l.153.46.485,0a.066.066,0,0,1,.038.118l-.39.288.146.464a.066.066,0,0,1-.1.073l-.394-.282-.394.282a.066.066,0,0,1-.1-.073l.146-.464-.39-.288a.066.066,0,0,1,.038-.118l.485,0,.153-.46a.066.066,0,0,1,.123,0Z" transform="translate(-72.102 -222.465)" fill="#f5f5f5"/>
        <path id="Path_2615" data-name="Path 2615" d="M104.414,49.209l.153.46.485,0a.066.066,0,0,1,.038.118l-.39.288.146.464a.066.066,0,0,1-.1.073l-.394-.282-.394.282a.066.066,0,0,1-.1-.073l.146-.464-.39-.288a.066.066,0,0,1,.038-.118l.485,0,.153-.46a.066.066,0,0,1,.123,0Z" transform="translate(-96.098 -45.603)" fill="#f5f5f5"/>
        <path id="Path_2616" data-name="Path 2616" d="M104.414,108.142l.153.46.485,0a.066.066,0,0,1,.038.118l-.39.288.146.464a.066.066,0,0,1-.1.073l-.394-.282-.394.282a.066.066,0,0,1-.1-.073l.146-.464-.39-.288a.066.066,0,0,1,.038-.118l.485,0,.153-.46a.066.066,0,0,1,.123,0Z" transform="translate(-96.098 -100.406)" fill="#f5f5f5"/>
        <path id="Path_2617" data-name="Path 2617" d="M104.414,164.133l.153.459.485,0a.066.066,0,0,1,.038.118l-.39.288.146.464a.066.066,0,0,1-.1.073l-.394-.282-.394.282a.066.066,0,0,1-.1-.073L104,165l-.39-.288a.066.066,0,0,1,.038-.118l.485,0,.153-.459a.066.066,0,0,1,.123,0Z" transform="translate(-96.098 -152.42)" fill="#f5f5f5"/>
        <path id="Path_2618" data-name="Path 2618" d="M104.414,214.415l.153.46.485,0a.066.066,0,0,1,.038.118l-.39.288.146.464a.066.066,0,0,1-.1.073l-.394-.282-.394.282a.066.066,0,0,1-.1-.073l.146-.464-.39-.288a.066.066,0,0,1,.038-.118l.485,0,.153-.46a.066.066,0,0,1,.123,0Z" transform="translate(-96.098 -199.13)" fill="#f5f5f5"/>
        <path id="Path_2619" data-name="Path 2619" d="M130.281,24.046l.153.46.485,0a.066.066,0,0,1,.038.118l-.39.288.146.464a.066.066,0,0,1-.1.073l-.394-.282-.394.282a.066.066,0,0,1-.1-.073l.146-.464-.39-.288a.066.066,0,0,1,.038-.118l.485,0,.153-.46a.066.066,0,0,1,.123,0Z" transform="translate(-120.096 -22.256)" fill="#f5f5f5"/>
        <path id="Path_2620" data-name="Path 2620" d="M130.279,77.176l.153.46.485,0a.066.066,0,0,1,.038.118l-.39.288.146.464a.066.066,0,0,1-.1.073l-.4-.279-.394.282a.066.066,0,0,1-.1-.073l.146-.464-.39-.288a.066.066,0,0,1,.038-.118l.485,0,.153-.46a.066.066,0,0,1,.128,0Z" transform="translate(-120.095 -71.554)" fill="#f5f5f5"/>
        <path id="Path_2621" data-name="Path 2621" d="M130.281,136.116l.153.46.485,0a.066.066,0,0,1,.038.118l-.39.288.146.464a.066.066,0,0,1-.1.073l-.394-.282-.394.282a.066.066,0,0,1-.1-.073l.146-.464-.39-.288a.066.066,0,0,1,.038-.118l.485,0,.153-.46a.066.066,0,0,1,.123,0Z" transform="translate(-120.096 -126.393)" fill="#f5f5f5"/>
        <path id="Path_2622" data-name="Path 2622" d="M130.281,190.262l.153.46.485,0a.066.066,0,0,1,.038.118l-.39.288.146.464a.066.066,0,0,1-.1.073l-.394-.282-.394.282a.066.066,0,0,1-.1-.073l.146-.464-.39-.288a.066.066,0,0,1,.038-.118l.485,0,.153-.46a.066.066,0,0,1,.123,0Z" transform="translate(-120.096 -176.693)" fill="#f5f5f5"/>
        <path id="Path_2623" data-name="Path 2623" d="M130.281,239.534l.153.46.485,0a.066.066,0,0,1,.038.118l-.39.288.146.464a.066.066,0,0,1-.1.073l-.394-.282-.394.282a.066.066,0,0,1-.1-.073l.146-.464-.39-.288a.066.066,0,0,1,.038-.118l.485,0,.153-.46a.066.066,0,0,1,.123,0Z" transform="translate(-120.096 -222.465)" fill="#f5f5f5"/>
        <path id="Path_2624" data-name="Path 2624" d="M156.14,49.209l.153.46.485,0a.066.066,0,0,1,.038.118l-.39.288.146.464a.066.066,0,0,1-.1.073l-.394-.282-.394.282a.066.066,0,0,1-.1-.073l.146-.464-.39-.288a.066.066,0,0,1,.038-.118l.485,0,.153-.46a.066.066,0,0,1,.123,0Z" transform="translate(-144.092 -45.603)" fill="#f5f5f5"/>
        <path id="Path_2625" data-name="Path 2625" d="M156.14,108.142l.153.46.485,0a.066.066,0,0,1,.038.118l-.39.288.146.464a.066.066,0,0,1-.1.073l-.394-.282-.394.282a.066.066,0,0,1-.1-.073l.146-.464-.39-.288a.066.066,0,0,1,.038-.118l.485,0,.153-.46a.066.066,0,0,1,.123,0Z" transform="translate(-144.092 -100.406)" fill="#f5f5f5"/>
        <path id="Path_2626" data-name="Path 2626" d="M156.14,164.133l.153.46.485,0a.066.066,0,0,1,.038.118l-.39.288.146.464a.066.066,0,0,1-.1.073l-.394-.282-.394.282a.066.066,0,0,1-.1-.073l.146-.464-.39-.288a.066.066,0,0,1,.038-.118l.485,0,.153-.46a.066.066,0,0,1,.123,0Z" transform="translate(-144.092 -152.42)" fill="#f5f5f5"/>
        <path id="Path_2627" data-name="Path 2627" d="M156.14,214.415l.153.46.485,0a.066.066,0,0,1,.038.118l-.39.288.146.464a.066.066,0,0,1-.1.073l-.394-.282-.394.282a.066.066,0,0,1-.1-.073l.146-.464-.39-.288a.066.066,0,0,1,.038-.118l.485,0,.153-.46a.066.066,0,0,1,.123,0Z" transform="translate(-144.092 -199.13)" fill="#f5f5f5"/>
        <path id="Path_2628" data-name="Path 2628" d="M182,24.044l.153.46.485,0a.066.066,0,0,1,.038.118l-.39.288.146.464a.066.066,0,0,1-.1.073l-.394-.282-.394.282a.066.066,0,0,1-.1-.073l.146-.464-.39-.288a.066.066,0,0,1,.038-.118l.482,0,.153-.46a.066.066,0,0,1,.126,0Z" transform="translate(-168.087 -22.255)" fill="#f5f5f5"/>
        <path id="Path_2629" data-name="Path 2629" d="M182,77.178l.153.46.485,0a.066.066,0,0,1,.038.118l-.39.288.146.464a.066.066,0,0,1-.1.073l-.394-.282-.394.282a.066.066,0,0,1-.1-.073l.146-.464-.39-.288a.066.066,0,0,1,.038-.118h.482l.153-.46a.066.066,0,0,1,.126,0Z" transform="translate(-168.087 -71.557)" fill="#f5f5f5"/>
        <path id="Path_2630" data-name="Path 2630" d="M182,136.116l.153.46.485,0a.066.066,0,0,1,.038.118l-.39.288.146.464a.066.066,0,0,1-.1.073l-.394-.282-.394.282a.066.066,0,0,1-.1-.073l.146-.464-.39-.288a.066.066,0,0,1,.038-.118l.485,0,.153-.46a.066.066,0,0,1,.123,0Z" transform="translate(-168.087 -126.393)" fill="#f5f5f5"/>
        <path id="Path_2631" data-name="Path 2631" d="M182,190.262l.153.46.485,0a.066.066,0,0,1,.038.118l-.39.288.146.464a.066.066,0,0,1-.1.073l-.394-.282-.394.282a.066.066,0,0,1-.1-.073l.146-.464-.39-.288a.066.066,0,0,1,.038-.118l.485,0,.153-.46a.066.066,0,0,1,.123,0Z" transform="translate(-168.087 -176.693)" fill="#f5f5f5"/>
        <path id="Path_2632" data-name="Path 2632" d="M182,239.534l.153.46.485,0a.066.066,0,0,1,.038.118l-.39.288.146.464a.066.066,0,0,1-.1.073l-.394-.282-.394.282a.066.066,0,0,1-.1-.073l.146-.464-.39-.288a.066.066,0,0,1,.038-.118l.485,0,.153-.46a.066.066,0,0,1,.123,0Z" transform="translate(-168.087 -222.465)" fill="#f5f5f5"/>
        <path id="Path_2633" data-name="Path 2633" d="M207.866,49.209l.153.46.485,0a.066.066,0,0,1,.038.118l-.39.288.146.464a.066.066,0,0,1-.1.073l-.394-.282-.394.282a.066.066,0,0,1-.1-.073l.146-.464-.39-.288a.066.066,0,0,1,.038-.118l.485,0,.153-.46a.066.066,0,0,1,.123,0Z" transform="translate(-192.086 -45.603)" fill="#f5f5f5"/>
        <path id="Path_2634" data-name="Path 2634" d="M207.866,108.142l.153.46.485,0a.066.066,0,0,1,.038.118l-.39.288.146.464a.066.066,0,0,1-.1.073l-.394-.282-.394.282a.066.066,0,0,1-.1-.073l.146-.464-.39-.288a.066.066,0,0,1,.038-.118l.485,0,.153-.46a.066.066,0,0,1,.123,0Z" transform="translate(-192.086 -100.406)" fill="#f5f5f5"/>
        <path id="Path_2635" data-name="Path 2635" d="M207.866,164.133l.153.459.485,0a.066.066,0,0,1,.038.118l-.39.288.146.464a.066.066,0,0,1-.1.073l-.394-.282-.394.282a.066.066,0,0,1-.1-.073l.146-.464-.39-.288a.066.066,0,0,1,.038-.118l.485,0,.153-.459a.066.066,0,0,1,.123,0Z" transform="translate(-192.086 -152.42)" fill="#f5f5f5"/>
        <path id="Path_2636" data-name="Path 2636" d="M207.866,214.415l.153.46.485,0a.066.066,0,0,1,.038.118l-.39.288.146.464a.066.066,0,0,1-.1.073l-.394-.282-.394.282a.066.066,0,0,1-.1-.073l.146-.464-.39-.288a.066.066,0,0,1,.038-.118l.485,0,.153-.46a.066.066,0,0,1,.123,0Z" transform="translate(-192.086 -199.13)" fill="#f5f5f5"/>
        <path id="Path_2637" data-name="Path 2637" d="M233.729,24.046l.153.46.485,0a.066.066,0,0,1,.038.118l-.39.288.146.464a.066.066,0,0,1-.1.073l-.394-.282-.394.282a.066.066,0,0,1-.1-.073l.146-.464-.39-.288a.066.066,0,0,1,.038-.118l.485,0,.153-.46a.066.066,0,0,1,.123,0Z" transform="translate(-216.082 -22.256)" fill="#f5f5f5"/>
        <path id="Path_2638" data-name="Path 2638" d="M233.729,77.179l.153.46.485,0a.066.066,0,0,1,.038.118l-.39.288.146.464a.066.066,0,0,1-.1.073l-.394-.282-.394.282a.066.066,0,0,1-.1-.073l.146-.464-.39-.288a.066.066,0,0,1,.038-.117l.485,0,.153-.46a.066.066,0,0,1,.123,0Z" transform="translate(-216.082 -71.557)" fill="#f5f5f5"/>
        <path id="Path_2639" data-name="Path 2639" d="M233.729,136.116l.153.46.485,0a.066.066,0,0,1,.038.118l-.39.288.146.464a.066.066,0,0,1-.1.073l-.394-.282-.394.282a.066.066,0,0,1-.1-.073l.146-.464-.39-.288a.066.066,0,0,1,.038-.118l.485,0,.153-.46a.066.066,0,0,1,.123,0Z" transform="translate(-216.082 -126.393)" fill="#f5f5f5"/>
        <path id="Path_2640" data-name="Path 2640" d="M233.729,190.262l.153.46.485,0a.066.066,0,0,1,.038.118l-.39.288.146.464a.066.066,0,0,1-.1.073l-.394-.282-.394.282a.066.066,0,0,1-.1-.073l.146-.464-.39-.288a.066.066,0,0,1,.038-.118l.485,0,.153-.46a.066.066,0,0,1,.123,0Z" transform="translate(-216.082 -176.693)" fill="#f5f5f5"/>
        <path id="Path_2641" data-name="Path 2641" d="M233.729,239.534l.153.46.485,0a.066.066,0,0,1,.038.118l-.39.288.146.464a.066.066,0,0,1-.1.073l-.394-.282-.394.282a.066.066,0,0,1-.1-.073l.146-.464-.39-.288a.066.066,0,0,1,.038-.118l.485,0,.153-.46a.066.066,0,0,1,.123,0Z" transform="translate(-216.082 -222.465)" fill="#f5f5f5"/>
      </g>
    </g>
    <g id="Group_429" data-name="Group 429" transform="translate(1446.011 2903)">
      <g id="Ellipse_87" data-name="Ellipse 87" transform="translate(0)" fill="#fff" stroke="#41479b" stroke-width="1">
        <circle cx="12.9" cy="12.9" r="12.9" stroke="none"/>
        <circle cx="12.9" cy="12.9" r="12.4" fill="none"/>
      </g>
      <g id="university" transform="translate(6.093 5.338)">
        <path id="Path_2667" data-name="Path 2667" d="M13.624,416.8v.908a.8.8,0,0,1-.8.8H.8a.8.8,0,0,1-.8-.8V416.8a.8.8,0,0,1,.8-.8H12.822A.8.8,0,0,1,13.624,416.8Z" transform="translate(0 -404.887)" fill="#273581"/>
        <path id="Path_2668" data-name="Path 2668" d="M48,196v5.076H59.059V196H56.548v4.167H54.785V196H52.274v4.167H50.511V196Z" transform="translate(-46.718 -190.764)" fill="#273581"/>
        <path id="Path_2669" data-name="Path 2669" d="M.413,4.434H13.236a.4.4,0,0,0,.2-.749L7.022.052a.4.4,0,0,0-.4,0L.216,3.685a.4.4,0,0,0,.2.749Z" transform="translate(-0.012 0)" fill="#273581"/>
      </g>
    </g>
  </g>
</svg>
